<svg width="1000" height="1000" viewBox="0 0 1000 1000" fill="none" xmlns="http://www.w3.org/2000/svg">
<path d="M1000 500C1000 223.858 776.142 0 500 0C223.858 0 0 223.858 0 500C0 776.142 223.858 1000 500 1000C776.142 1000 1000 776.142 1000 500Z" fill="#E6F5FF"/>
<mask id="mask0" style="mask-type:alpha" maskUnits="userSpaceOnUse" x="0" y="0" width="1000" height="1000">
<path d="M1000 500C1000 223.858 776.142 0 500 0C223.858 0 0 223.858 0 500C0 776.142 223.858 1000 500 1000C776.142 1000 1000 776.142 1000 500Z" fill="#E6F5FF"/>
</mask>
<g mask="url(#mask0)">
<path d="M168.034 586.359C133.622 680.821 132.554 793.175 168.034 820.252H787.083C816.494 783.838 871.116 688.6 809.492 597.563C747.867 506.527 809.492 492.521 761.873 335.659C714.254 178.796 591.938 170.859 523.777 177.395C427.139 59.7479 229.66 173.193 219.856 339.86C212.013 473.193 202.447 491.896 168.034 586.359Z" fill="#3F89E0"/>
<path d="M498.468 780.26C445.947 780.26 409.532 736.843 409.532 736.843V637.403H587.403V736.843C587.403 736.843 550.989 780.26 498.468 780.26Z" fill="#FEA472"/>
<path d="M335.5 753.148C106.929 795.725 79.0005 928.72 79 1000.15H920.737C869.196 800.709 738.664 781.661 653.23 757.852L335.5 753.148Z" fill="#FFDD65"/>
<mask id="mask1" style="mask-type:alpha" maskUnits="userSpaceOnUse" x="79" y="752" width="842" height="249">
<path d="M338.063 752.148C89.063 795.148 79.0005 928.72 79 1000.15H920.737C869.196 800.709 738.664 781.661 653.23 757.852L338.063 752.148Z" fill="#FFDD65"/>
</mask>
<g mask="url(#mask1)">
<path d="M327.5 752.648C327.5 752.648 358.044 844.148 499.5 844.148C640.957 844.148 667.235 762.053 667.235 762.053" stroke="#D1A71F" stroke-width="11.2045" stroke-linecap="round"/>
</g>
<path d="M370.316 748.048C370.316 748.048 408.341 792.866 497.767 792.866C587.194 792.866 625.218 748.048 625.218 748.048" stroke="#FFDD65" stroke-width="72.8291" stroke-linecap="round"/>
<path d="M409.532 696.227V664.014C465.555 692.025 536.983 691.558 559.392 685.022C503.37 735.442 435.676 707.431 409.532 696.227Z" fill="#DB6943"/>
<path d="M501.969 696.226C359.112 696.226 345.106 537.963 345.106 537.963C345.106 537.963 286.283 533.762 286.283 474.939C286.283 416.115 345.106 441.324 345.106 441.324C521.577 396.508 543.986 287.263 573.398 337.684C602.809 388.104 653.23 396.506 661.633 399.308C670.036 402.109 661.633 421.716 661.633 428.719C661.633 435.723 713.454 418.916 713.454 467.935C713.454 516.955 658.832 523.958 658.832 523.958V537.963C658.832 537.963 644.826 696.226 501.969 696.226Z" fill="#FEA472"/>
<path d="M472.557 599.588C488.43 603.323 524.378 602.949 541.185 571.577M500.569 462.333C499.635 476.805 495.246 510.232 485.162 528.159C472.557 550.568 503.37 554.77 511.773 550.568M685.443 455.33C677.506 456.264 661.353 462.053 660.232 477.739M308.692 462.333C317.562 462.333 335.302 466.254 335.302 481.941" stroke="#252833" stroke-width="11.2045" stroke-linecap="round" stroke-linejoin="round"/>
<path d="M487.964 480.541C487.964 519.99 455.984 551.969 416.535 551.969C377.086 551.969 345.106 519.99 345.106 480.541C345.106 441.092 377.086 409.112 416.535 409.112C455.984 409.112 487.964 441.092 487.964 480.541ZM358.7 480.541C358.7 512.482 384.594 538.376 416.535 538.376C448.476 538.376 474.37 512.482 474.37 480.541C474.37 448.6 448.476 422.706 416.535 422.706C384.594 422.706 358.7 448.6 358.7 480.541Z" fill="white"/>
<path d="M653.23 480.541C653.23 519.99 621.25 551.969 581.801 551.969C542.352 551.969 510.372 519.99 510.372 480.541C510.372 441.092 542.352 409.112 581.801 409.112C621.25 409.112 653.23 441.092 653.23 480.541ZM523.966 480.541C523.966 512.482 549.86 538.376 581.801 538.376C613.742 538.376 639.636 512.482 639.636 480.541C639.636 448.6 613.742 422.706 581.801 422.706C549.86 422.706 523.966 448.6 523.966 480.541Z" fill="white"/>
<path d="M473.958 459.532C473.958 459.532 485.162 453.93 497.067 453.93C508.972 453.93 520.176 459.532 520.176 459.532" stroke="white" stroke-width="14.0056"/>
<path d="M492.165 371.297C447.347 411.633 375.452 434.789 345.106 441.325L406.731 249.448L492.165 371.297Z" fill="#3F89E0"/>
<path d="M564.389 488.232C564.321 476.083 571.005 466.174 579.317 466.099C587.629 466.026 594.422 475.814 594.49 487.963C594.558 500.112 587.874 510.021 579.562 510.096C571.25 510.169 564.457 500.381 564.389 488.232Z" fill="#252833"/>
<path d="M613.154 458.258C608.344 462.612 602.531 465.665 596.259 467.133C590.758 468.414 585.031 468.237 579.631 466.625C578.295 466.198 576.89 466.05 575.495 466.184C574.098 466.319 572.744 466.737 571.508 467.412C570.271 468.087 569.18 469.007 568.298 470.115C567.415 471.226 566.76 472.5 566.37 473.868C565.979 475.236 565.863 476.667 566.028 478.077C566.192 479.489 566.635 480.851 567.326 482.083C568.019 483.315 568.948 484.393 570.059 485.254C571.171 486.112 572.443 486.736 573.797 487.089C575.594 487.617 577.498 487.637 579.307 487.151L580.117 486.952C584.055 486.015 587.874 484.612 591.492 482.77C594.967 481.005 598.191 478.763 601.07 476.112C606.501 471.271 610.656 465.133 613.154 458.258Z" fill="#252833"/>
<path d="M405.9 489.106C405.832 476.957 412.516 467.047 420.828 466.972C429.14 466.897 435.933 476.688 436.001 488.837C436.069 500.987 429.385 510.896 421.073 510.969C412.761 511.044 405.968 501.256 405.9 489.106Z" fill="#252833"/>
<path d="M387.886 461.363C389.829 467.252 393.58 472.6 398.71 476.791C401.341 479.033 404.188 481.065 407.21 482.867C410.294 484.673 413.502 486.298 416.815 487.728L417.388 487.965C418.999 488.681 420.762 489.058 422.531 489.067C424.304 489.074 426.038 488.714 427.591 488.012C429.145 487.31 430.478 486.288 431.484 485.025C432.489 483.764 433.138 482.298 433.379 480.746C433.621 479.194 433.447 477.599 432.871 476.088C432.299 474.576 431.337 473.193 430.071 472.047C428.802 470.9 427.262 470.023 425.573 469.485C423.883 468.95 422.09 468.767 420.34 468.953C417.631 469.256 414.895 469.395 412.152 469.365C409.359 469.312 406.569 469.032 403.814 468.525C397.896 467.544 392.359 465.055 387.886 461.363Z" fill="#252833"/>
</g>
</svg>
