<svg width="1990" height="853" viewBox="0 0 1990 853" fill="none" xmlns="http://www.w3.org/2000/svg">
<g clip-path="url(#clip0)">
<rect width="1990" height="853" fill="#F7D08C"/>
<circle cx="1036" cy="72" r="24" fill="#FBB66A"/>
<circle cx="520" r="24" fill="#FBB66A"/>
<circle cx="1684" cy="48" r="24" fill="#FBB66A"/>
<circle cx="1223.5" cy="686.5" r="12.5" fill="#FBB66A"/>
<circle cx="1671.5" cy="273.5" r="12.5" fill="#FBB66A"/>
<circle cx="1136.5" cy="756.5" r="16.5" fill="#FBB66A"/>
<circle cx="1581.5" cy="492.5" r="16.5" fill="#FBB66A"/>
<circle cx="1802.5" cy="525.5" r="16.5" fill="#FBB66A"/>
<circle cx="1040.5" cy="739.5" r="8.5" fill="#FBB66A"/>
<circle cx="1259.5" cy="484.5" r="8.5" fill="#FBB66A"/>
<circle cx="1483.5" cy="739.5" r="8.5" fill="#FBB66A"/>
<circle cx="545" cy="692" r="25" fill="#FBB66A"/>
<circle cx="138" cy="853" r="25" fill="#FBB66A"/>
<ellipse cy="-0.5" rx="16" ry="16.5" fill="#FBB66A"/>
<ellipse cx="808" cy="113.5" rx="8" ry="8.5" fill="#FBB66A"/>
<circle cx="1574.5" cy="971.5" r="774.5" fill="white"/>
<path d="M84 225.824V196.227H85.3398C88.8314 196.227 91.4704 194.684 93.2568 191.598C95.1244 188.513 96.3424 183.681 96.9108 177.104L99.9558 144.218H144.535V196.227H155.131V225.824H143.195V207.189H95.9364V225.824H84ZM132.598 196.227V155.18H111.04L108.969 177.104C108.482 182.301 107.751 186.401 106.777 189.406C105.883 192.41 104.625 194.684 103.001 196.227H132.598Z" fill="white"/>
<path d="M193.447 208.407C187.032 208.407 181.307 207.026 176.273 204.265C171.239 201.505 167.3 197.648 164.458 192.694C161.616 187.741 160.195 182.098 160.195 175.764C160.195 169.431 161.616 163.787 164.458 158.834C167.3 153.881 171.239 150.024 176.273 147.263C181.307 144.421 187.032 143 193.447 143C199.862 143 205.586 144.421 210.621 147.263C215.655 150.024 219.593 153.881 222.435 158.834C225.277 163.787 226.698 169.431 226.698 175.764C226.698 182.098 225.277 187.741 222.435 192.694C219.593 197.648 215.655 201.505 210.621 204.265C205.586 207.026 199.862 208.407 193.447 208.407ZM193.447 197.445C199.618 197.445 204.612 195.455 208.428 191.476C212.326 187.498 214.275 182.26 214.275 175.764C214.275 169.268 212.326 164.031 208.428 160.052C204.612 155.992 199.618 153.962 193.447 153.962C187.276 153.962 182.282 155.992 178.465 160.052C174.649 164.031 172.741 169.268 172.741 175.764C172.741 182.179 174.649 187.416 178.465 191.476C182.282 195.455 187.276 197.445 193.447 197.445Z" fill="white"/>
<path d="M268.01 208.407C261.758 208.407 256.114 207.026 251.08 204.265C246.127 201.423 242.27 197.526 239.509 192.573C236.748 187.619 235.368 182.017 235.368 175.764C235.368 169.431 236.748 163.787 239.509 158.834C242.27 153.881 246.127 150.024 251.08 147.263C256.033 144.421 261.677 143 268.01 143C274.75 143 280.759 144.624 286.037 147.872C291.396 151.12 295.212 155.789 297.486 161.879L286.28 163.706C284.819 160.783 282.504 158.428 279.338 156.642C276.252 154.855 272.72 153.962 268.741 153.962C262.57 153.962 257.535 155.992 253.638 160.052C249.821 164.112 247.913 169.349 247.913 175.764C247.913 182.179 249.821 187.416 253.638 191.476C257.535 195.455 262.57 197.445 268.741 197.445C272.882 197.445 276.536 196.511 279.703 194.643C282.951 192.776 285.306 190.299 286.768 187.213L297.973 189.04C295.699 195.212 291.802 200.002 286.28 203.413C280.84 206.742 274.75 208.407 268.01 208.407Z" fill="white"/>
<path d="M334.349 207.189H322.413V155.18H300.611V144.218H356.152V155.18H334.349V207.189Z" fill="white"/>
<path d="M383.715 207.189H366.054V144.218H377.625V193.791H379.452L404.908 144.218H422.569V207.189H410.998V157.738H409.171L383.715 207.189Z" fill="white"/>
<path d="M522.657 207.189H507.432L485.873 181.123H482.341V207.189H470.77V181.123H467.238L445.679 207.189H430.454L457.738 174.668L432.89 144.218H446.776L467.116 169.674H470.77V144.218H482.341V169.674H485.995L506.336 144.218H520.221L495.374 174.668L522.657 207.189Z" fill="white"/>
<path d="M589.074 175.277C589.074 176.901 589.034 178.16 588.952 179.053H536.944C537.593 184.656 539.786 189.122 543.521 192.451C547.256 195.78 552.006 197.445 557.772 197.445C561.75 197.445 565.283 196.673 568.368 195.13C571.535 193.506 573.93 191.395 575.554 188.797L586.76 190.624C584.324 196.308 580.386 200.693 574.945 203.778C569.586 206.864 563.618 208.407 557.041 208.407C550.788 208.407 545.186 207.026 540.232 204.265C535.279 201.423 531.422 197.526 528.661 192.573C525.901 187.619 524.52 182.017 524.52 175.764C524.52 169.431 525.901 163.787 528.661 158.834C531.422 153.881 535.239 150.024 540.111 147.263C544.983 144.421 550.545 143 556.797 143C562.968 143 568.49 144.421 573.362 147.263C578.315 150.024 582.172 153.881 584.933 158.834C587.694 163.706 589.074 169.187 589.074 175.277ZM556.797 153.597C552.006 153.597 547.865 155.018 544.374 157.86C540.963 160.702 538.69 164.518 537.553 169.309H576.042C574.986 164.599 572.712 160.823 569.221 157.981C565.81 155.058 561.669 153.597 556.797 153.597Z" fill="white"/>
<path d="M642.4 169.918V144.218H654.336V207.189H642.4V180.88H612.071V207.189H600.135V144.218H612.071V169.918H642.4Z" fill="white"/>
<path d="M687.973 207.189H670.312V144.218H681.883V193.791H683.71L709.166 144.218H726.827V207.189H715.256V157.738H713.429L687.973 207.189Z" fill="white"/>
<path d="M791.35 144.218V207.189H779.413V185.752H766.868L752.739 207.189H738.976L754.444 184.047C750.222 182.504 746.852 180.068 744.335 176.739C741.899 173.409 740.681 169.512 740.681 165.046C740.681 161.067 741.696 157.494 743.726 154.327C745.756 151.161 748.598 148.684 752.252 146.898C755.906 145.111 760.047 144.218 764.675 144.218H791.35ZM779.413 175.277V154.815H764.675C761.103 154.815 758.22 155.748 756.028 157.616C753.835 159.484 752.739 161.96 752.739 165.046C752.739 168.131 753.835 170.608 756.028 172.476C758.22 174.343 761.103 175.277 764.675 175.277H779.413Z" fill="white"/>
<path d="M117.739 337.764H105.802V285.755H84V274.793H139.541V285.755H117.739V337.764Z" fill="#F765A6"/>
<path d="M191.22 304.756C194.468 305.974 197.067 307.963 199.015 310.724C201.045 313.404 202.06 316.571 202.06 320.225C202.06 323.554 201.086 326.558 199.137 329.238C197.27 331.917 194.631 334.029 191.22 335.571C187.81 337.033 183.912 337.764 179.527 337.764H149.443V274.793H178.431C182.572 274.793 186.267 275.524 189.515 276.986C192.763 278.447 195.28 280.437 197.067 282.954C198.934 285.471 199.868 288.354 199.868 291.602C199.868 294.687 199.097 297.367 197.554 299.64C196.092 301.833 193.981 303.538 191.22 304.756ZM161.379 284.903V300.371H178.431C181.192 300.371 183.466 299.681 185.252 298.301C187.038 296.839 187.932 294.971 187.932 292.698C187.932 290.424 187.038 288.557 185.252 287.095C183.466 285.633 181.192 284.903 178.431 284.903H161.379ZM179.527 327.654C182.694 327.654 185.252 326.842 187.201 325.218C189.15 323.594 190.124 321.483 190.124 318.885C190.124 316.286 189.15 314.175 187.201 312.551C185.252 310.927 182.694 310.115 179.527 310.115H161.379V327.654H179.527Z" fill="#F765A6"/>
<path d="M244.578 338.982C238.163 338.982 232.439 337.601 227.404 334.841C222.37 332.08 218.432 328.223 215.59 323.27C212.748 318.316 211.327 312.673 211.327 306.339C211.327 300.006 212.748 294.362 215.59 289.409C218.432 284.456 222.37 280.599 227.404 277.838C232.439 274.996 238.163 273.575 244.578 273.575C250.993 273.575 256.717 274.996 261.752 277.838C266.786 280.599 270.724 284.456 273.566 289.409C276.408 294.362 277.829 300.006 277.829 306.339C277.829 312.673 276.408 318.316 273.566 323.27C270.724 328.223 266.786 332.08 261.752 334.841C256.717 337.601 250.993 338.982 244.578 338.982ZM244.578 328.02C250.749 328.02 255.743 326.03 259.559 322.052C263.457 318.073 265.406 312.835 265.406 306.339C265.406 299.843 263.457 294.606 259.559 290.627C255.743 286.567 250.749 284.537 244.578 284.537C238.407 284.537 233.413 286.567 229.597 290.627C225.78 294.606 223.872 299.843 223.872 306.339C223.872 312.754 225.78 317.992 229.597 322.052C233.413 326.03 238.407 328.02 244.578 328.02Z" fill="#F765A6"/>
<path d="M307.814 337.764H290.153V274.793H301.724V324.366H303.551L329.007 274.793H346.668V337.764H335.097V288.313H333.27L307.814 337.764ZM318.533 266.633C313.255 266.633 308.829 265.252 305.256 262.491C301.765 259.649 299.694 255.427 299.045 249.824H308.789C309.195 252.423 310.21 254.412 311.834 255.792C313.539 257.092 315.772 257.741 318.533 257.741C321.293 257.741 323.486 257.092 325.11 255.792C326.815 254.412 327.83 252.423 328.155 249.824H338.021C337.29 255.427 335.138 259.649 331.565 262.491C328.074 265.252 323.729 266.633 318.533 266.633Z" fill="#F765A6"/>
<path d="M403.191 337.764H391.255V274.793H444.847V337.764H432.91V285.755H403.191V337.764Z" fill="#F765A6"/>
<path d="M460.837 362.733V274.793H469.485L472.408 285.268C475.006 281.939 478.295 279.178 482.274 276.986C486.334 274.712 491.043 273.575 496.402 273.575C502.33 273.575 507.608 274.996 512.236 277.838C516.865 280.599 520.478 284.456 523.077 289.409C525.756 294.362 527.096 300.006 527.096 306.339C527.096 312.592 525.756 318.195 523.077 323.148C520.478 328.101 516.865 331.999 512.236 334.841C507.608 337.601 502.33 338.982 496.402 338.982C491.206 338.982 486.618 337.926 482.639 335.815C478.66 333.623 475.372 330.943 472.773 327.776V362.733H460.837ZM493.845 328.263C497.905 328.263 501.518 327.33 504.685 325.462C507.852 323.594 510.288 320.996 511.993 317.667C513.779 314.338 514.672 310.562 514.672 306.339C514.672 302.117 513.779 298.341 511.993 295.012C510.288 291.683 507.852 289.084 504.685 287.217C501.518 285.349 497.905 284.415 493.845 284.415C489.785 284.415 486.131 285.349 482.883 287.217C479.716 289.084 477.239 291.683 475.453 295.012C473.666 298.341 472.773 302.117 472.773 306.339C472.773 310.562 473.666 314.338 475.453 317.667C477.239 320.996 479.716 323.594 482.883 325.462C486.131 327.33 489.785 328.263 493.845 328.263Z" fill="#F765A6"/>
<path d="M569.056 338.982C562.641 338.982 556.917 337.601 551.882 334.841C546.848 332.08 542.91 328.223 540.068 323.27C537.226 318.316 535.805 312.673 535.805 306.339C535.805 300.006 537.226 294.362 540.068 289.409C542.91 284.456 546.848 280.599 551.882 277.838C556.917 274.996 562.641 273.575 569.056 273.575C575.471 273.575 581.195 274.996 586.23 277.838C591.264 280.599 595.202 284.456 598.044 289.409C600.886 294.362 602.307 300.006 602.307 306.339C602.307 312.673 600.886 318.316 598.044 323.27C595.202 328.223 591.264 332.08 586.23 334.841C581.195 337.601 575.471 338.982 569.056 338.982ZM569.056 328.02C575.227 328.02 580.221 326.03 584.037 322.052C587.935 318.073 589.884 312.835 589.884 306.339C589.884 299.843 587.935 294.606 584.037 290.627C580.221 286.567 575.227 284.537 569.056 284.537C562.885 284.537 557.891 286.567 554.075 290.627C550.258 294.606 548.35 299.843 548.35 306.339C548.35 312.754 550.258 317.992 554.075 322.052C557.891 326.03 562.885 328.02 569.056 328.02Z" fill="#F765A6"/>
<path d="M644.472 338.007C637.976 338.007 632.17 336.668 627.055 333.988C622.02 331.227 618.082 327.451 615.24 322.661C612.398 317.87 610.977 312.389 610.977 306.218C610.977 300.046 612.398 294.565 615.24 289.775C618.082 284.984 622.02 281.249 627.055 278.569C632.17 275.808 637.976 274.428 644.472 274.428V251.895H656.043V274.428C662.539 274.428 668.304 275.808 673.339 278.569C678.454 281.249 682.433 284.984 685.275 289.775C688.117 294.565 689.538 300.046 689.538 306.218C689.538 312.389 688.117 317.87 685.275 322.661C682.433 327.451 678.454 331.227 673.339 333.988C668.304 336.668 662.539 338.007 656.043 338.007V362.733H644.472V338.007ZM644.472 285.268C638.301 285.268 633.267 287.217 629.369 291.114C625.471 295.012 623.523 300.046 623.523 306.218C623.523 312.389 625.471 317.464 629.369 321.443C633.267 325.34 638.301 327.289 644.472 327.289V285.268ZM656.043 327.289C662.296 327.289 667.371 325.34 671.268 321.443C675.166 317.464 677.115 312.389 677.115 306.218C677.115 300.046 675.166 295.012 671.268 291.114C667.371 287.217 662.296 285.268 656.043 285.268V327.289Z" fill="#F765A6"/>
<path d="M719.359 337.764H701.698V274.793H713.269V324.366H715.096L740.552 274.793H758.213V337.764H746.642V288.313H744.815L719.359 337.764Z" fill="#F765A6"/>
<path d="M783.395 274.793H827.608V337.764H815.672V285.755H794.478L792.651 315.474C792.245 322.864 790.337 328.548 786.927 332.526C783.516 336.424 778.888 338.373 773.042 338.373C771.499 338.373 769.794 338.251 767.926 338.007L766.708 326.558C767.764 326.639 769.347 326.68 771.458 326.68C774.706 326.68 777.02 325.868 778.401 324.244C779.781 322.62 780.593 319.778 780.837 315.718L783.395 274.793Z" fill="#F765A6"/>
<path d="M843.598 337.764V274.793H855.534V293.307H867.836C872.708 293.307 877.052 294.241 880.869 296.108C884.685 297.976 887.649 300.615 889.76 304.025C891.953 307.354 893.049 311.171 893.049 315.474C893.049 319.778 891.953 323.635 889.76 327.045C887.649 330.375 884.685 333.014 880.869 334.962C877.052 336.83 872.708 337.764 867.836 337.764H843.598ZM867.836 327.289C871.734 327.289 874.901 326.193 877.337 324C879.854 321.808 881.112 318.966 881.112 315.474C881.112 312.064 879.854 309.263 877.337 307.07C874.901 304.878 871.734 303.782 867.836 303.782H855.534V327.289H867.836Z" fill="#F765A6"/>
<path d="M139.054 421.916C143.682 423.296 147.336 425.773 150.016 429.346C152.695 432.837 154.035 437.06 154.035 442.013C154.035 446.641 152.858 450.782 150.503 454.436C148.148 458.009 144.859 460.811 140.637 462.841C136.496 464.789 131.705 465.764 126.265 465.764H91.308V379.895H123.95C129.391 379.895 134.182 380.91 138.323 382.94C142.545 384.889 145.834 387.649 148.189 391.222C150.543 394.714 151.721 398.693 151.721 403.159C151.721 407.625 150.584 411.522 148.31 414.851C146.118 418.099 143.032 420.454 139.054 421.916ZM103.853 390.979V417.044H123.95C128.416 417.044 132.03 415.866 134.791 413.512C137.551 411.076 138.932 407.949 138.932 404.133C138.932 400.235 137.551 397.069 134.791 394.633C132.03 392.197 128.416 390.979 123.95 390.979H103.853ZM126.265 454.68C130.649 454.68 134.222 453.462 136.983 451.026C139.744 448.509 141.124 445.261 141.124 441.282C141.124 437.384 139.744 434.218 136.983 431.782C134.222 429.346 130.649 428.128 126.265 428.128H103.853V454.68H126.265Z" fill="#F765A6"/>
<path d="M195.293 421.307L236.339 465.764H219.653L185.062 427.884H181.286V465.764H168.74V379.895H181.286V415.826H185.062L217.582 379.895H233.294L195.293 421.307Z" fill="#F765A6"/>
<path d="M268.962 466.982C262.547 466.982 256.822 465.601 251.788 462.841C246.754 460.08 242.815 456.223 239.973 451.27C237.131 446.316 235.71 440.673 235.71 434.339C235.71 428.006 237.131 422.362 239.973 417.409C242.815 412.456 246.754 408.599 251.788 405.838C256.822 402.996 262.547 401.575 268.962 401.575C275.377 401.575 281.101 402.996 286.136 405.838C291.17 408.599 295.108 412.456 297.95 417.409C300.792 422.362 302.213 428.006 302.213 434.339C302.213 440.673 300.792 446.316 297.95 451.27C295.108 456.223 291.17 460.08 286.136 462.841C281.101 465.601 275.377 466.982 268.962 466.982ZM268.962 456.02C275.133 456.02 280.127 454.03 283.943 450.052C287.841 446.073 289.79 440.835 289.79 434.339C289.79 427.843 287.841 422.606 283.943 418.627C280.127 414.567 275.133 412.537 268.962 412.537C262.791 412.537 257.797 414.567 253.98 418.627C250.164 422.606 248.256 427.843 248.256 434.339C248.256 440.754 250.164 445.992 253.98 450.052C257.797 454.03 262.791 456.02 268.962 456.02Z" fill="#F765A6"/>
<path d="M356.802 428.493V402.793H368.738V465.764H356.802V439.455H326.473V465.764H314.537V402.793H326.473V428.493H356.802Z" fill="#F765A6"/>
<path d="M412.362 465.764H400.426V413.755H378.624V402.793H434.165V413.755H412.362V465.764Z" fill="#F765A6"/>
<path d="M466.535 401.575C474.33 401.575 480.461 404.133 484.927 409.249C489.474 414.283 491.747 421.347 491.747 430.442V465.764H483.221L480.42 455.898C478.39 459.065 475.67 461.704 472.259 463.815C468.849 465.926 464.748 466.982 459.958 466.982C455.735 466.982 451.959 466.129 448.63 464.424C445.301 462.719 442.703 460.364 440.835 457.36C438.967 454.274 438.034 450.823 438.034 447.007C438.034 441.079 440.388 436.329 445.098 432.756C449.808 429.183 456.628 427.397 465.56 427.397H479.811C479.486 422.444 478.106 418.627 475.67 415.948C473.234 413.187 469.986 411.806 465.926 411.806C462.84 411.806 460.12 412.537 457.765 413.999C455.41 415.46 453.624 417.369 452.406 419.723L441.322 417.896C442.946 412.862 446.072 408.883 450.701 405.96C455.329 403.037 460.607 401.575 466.535 401.575ZM462.515 456.872C467.631 456.872 471.772 455.208 474.939 451.879C478.187 448.468 479.811 443.799 479.811 437.872V437.141H465.926C455.37 437.141 450.092 440.308 450.092 446.641C450.092 449.727 451.229 452.203 453.502 454.071C455.776 455.939 458.78 456.872 462.515 456.872Z" fill="#F765A6"/>
<path d="M561.676 465.764H545.964L522.7 439.699H518.924V465.764H506.988V402.793H518.924V428.249H522.578L544.867 402.793H559.24L532.2 433.243L561.676 465.764Z" fill="#F765A6"/>
<path d="M597.2 465.764H585.264V413.755H563.462V402.793H619.003V413.755H597.2V465.764Z" fill="#F765A6"/>
<path d="M687.426 433.852C687.426 435.476 687.385 436.735 687.304 437.628H635.295C635.945 443.231 638.137 447.697 641.872 451.026C645.608 454.355 650.358 456.02 656.123 456.02C660.102 456.02 663.634 455.248 666.72 453.706C669.886 452.082 672.282 449.97 673.906 447.372L685.111 449.199C682.675 454.883 678.737 459.268 673.297 462.353C667.938 465.439 661.969 466.982 655.392 466.982C649.14 466.982 643.537 465.601 638.584 462.841C633.631 459.999 629.774 456.101 627.013 451.148C624.252 446.195 622.872 440.592 622.872 434.339C622.872 428.006 624.252 422.362 627.013 417.409C629.774 412.456 633.59 408.599 638.462 405.838C643.334 402.996 648.896 401.575 655.149 401.575C661.32 401.575 666.841 402.996 671.713 405.838C676.667 408.599 680.524 412.456 683.284 417.409C686.045 422.281 687.426 427.762 687.426 433.852ZM655.149 412.172C650.358 412.172 646.217 413.593 642.725 416.435C639.315 419.277 637.041 423.093 635.904 427.884H674.393C673.337 423.174 671.064 419.399 667.572 416.557C664.162 413.633 660.021 412.172 655.149 412.172Z" fill="#F765A6"/>
<mask id="mask0" style="mask-type:alpha" maskUnits="userSpaceOnUse" x="666" y="-24" width="1683" height="1770">
<path d="M1574.5 1746C2002.24 1746 2349 1399.24 2349 971.5V-23.5H666.5V971.5C666.5 1399.24 1146.76 1746 1574.5 1746Z" fill="#C4C4C4"/>
</mask>
<g mask="url(#mask0)">
<path d="M910.21 179V172H832V179H910.21Z" fill="white"/>
<path d="M1629.21 162.977C1686.66 191.862 1802.5 326.024 1700.49 397.639C1682.13 410.53 1361.06 500.527 1306.48 370.903C1271.2 286.874 1356.77 226.716 1363.93 215.973C1398.72 163.932 1466.18 151.996 1518.62 112.846" fill="#FF5794"/>
<path d="M1586.79 258.704C1609.19 231.252 1602.52 191.146 1590.13 157.964C1577.73 124.782 1560.09 92.793 1535.07 66.7725C1510.04 40.752 1477.15 20.938 1441.15 14.9703C1420.65 11.6281 1398.01 13.0602 1381.56 25.2348C1365.12 37.4098 1358.68 62.237 1371.55 78.2313C1349.63 68.9214 1322.69 72.2631 1304.34 86.5866C1285.99 100.91 1277.16 125.498 1282.17 147.938C1286.7 168.707 1317.68 208.095 1335.8 220.271C1354.15 232.445 1359.87 217.645 1380.85 224.09C1430.91 239.13 1481.67 278.28 1533.4 285.919" fill="#FF5794"/>
<path d="M1559.62 338.914C1557 419.365 1576.54 505.305 1590.61 544.217C1530.06 623.948 1475.24 629.915 1430.91 527.504C1439.25 480.476 1430.91 422.467 1425.19 378.546" fill="white"/>
<path d="M1559.62 338.914C1557 419.365 1576.54 505.305 1590.61 544.217C1530.06 623.948 1475.24 629.915 1430.91 527.504C1439.25 480.476 1430.91 422.467 1425.19 378.546" stroke="#37324A" stroke-width="7.17877" stroke-miterlimit="10" stroke-linecap="round" stroke-linejoin="round"/>
<path d="M1390.38 114.515C1350.1 130.27 1344.14 162.02 1344.14 162.02C1344.14 162.02 1325.31 288.304 1341.76 346.788C1358.2 405.516 1427.09 478.327 1532.2 403.129C1559.14 383.794 1579.16 331.514 1579.16 331.514C1579.16 331.514 1614.2 339.868 1633.98 315.039C1654.72 288.542 1647.33 244.618 1595.61 261.805C1599.66 220.745 1603.23 196.873 1590.6 168.704" fill="white"/>
<path d="M1390.38 114.515C1350.1 130.27 1344.14 162.02 1344.14 162.02C1344.14 162.02 1325.31 288.304 1341.76 346.788C1358.2 405.516 1427.09 478.327 1532.2 403.129C1559.14 383.794 1579.16 331.514 1579.16 331.514C1579.16 331.514 1614.2 339.868 1633.98 315.039C1654.72 288.542 1647.33 244.618 1595.61 261.805C1599.66 220.745 1603.23 196.873 1590.6 168.704" stroke="#37324A" stroke-width="7.17877" stroke-miterlimit="10" stroke-linecap="round" stroke-linejoin="round"/>
<path d="M1601.56 300.004C1603.95 293.081 1610.14 287.829 1617.05 286.158" stroke="#37324A" stroke-width="7.17877" stroke-miterlimit="10" stroke-linecap="round" stroke-linejoin="round"/>
<path d="M1432.1 281.625C1428.28 287.354 1425.19 293.561 1422.8 300.006C1421.61 303.346 1420.66 306.93 1421.85 310.271C1423.04 313.612 1426.14 315.999 1429.48 317.196C1432.82 318.387 1436.39 318.387 1439.97 318.625" stroke="#37324A" stroke-width="7.17877" stroke-miterlimit="10" stroke-linecap="round"/>
<path d="M1529.11 266.346C1529.35 266.108 1529.35 265.63 1529.35 265.391C1531.26 256.797 1517.91 249.875 1511 248.203C1501.94 246.055 1492.4 247.965 1484.3 252.262C1481.2 253.933 1478.1 256.081 1477.15 259.185C1475.72 264.198 1479.53 269.211 1483.82 272.314C1484.54 272.792 1485.49 273.508 1486.21 273.985" fill="white"/>
<path d="M1529.11 266.346C1529.35 266.108 1529.35 265.63 1529.35 265.391C1531.26 256.797 1517.91 249.875 1511 248.203C1501.94 246.055 1492.4 247.965 1484.3 252.262C1481.2 253.933 1478.1 256.081 1477.15 259.185C1475.72 264.198 1479.53 269.211 1483.82 272.314C1484.54 272.792 1485.49 273.508 1486.21 273.985" stroke="#37324A" stroke-width="7.17877" stroke-miterlimit="10" stroke-linecap="round"/>
<path d="M1508.22 264.239C1508.78 255.82 1501.99 248.515 1493.06 247.923C1484.12 247.331 1476.43 253.677 1475.88 262.097C1475.32 270.516 1482.11 277.821 1491.04 278.412C1499.98 279.004 1507.67 272.658 1508.22 264.239Z" fill="#37324A"/>
<path d="M1403.01 270.16C1403.25 269.922 1403.25 269.445 1403.49 269.206C1406.11 260.85 1393.48 252.734 1386.8 250.347C1377.98 247.482 1368.21 248.437 1359.63 251.779C1356.53 253.211 1353.19 254.882 1352 257.986C1350.1 262.76 1353.43 268.251 1357.48 271.593C1358.2 272.309 1358.91 272.786 1359.87 273.264" fill="white"/>
<path d="M1403.01 270.16C1403.25 269.922 1403.25 269.445 1403.49 269.206C1406.11 260.85 1393.48 252.734 1386.8 250.347C1377.98 247.482 1368.21 248.437 1359.63 251.779C1356.53 253.211 1353.19 254.882 1352 257.986C1350.1 262.76 1353.43 268.251 1357.48 271.593C1358.2 272.309 1358.91 272.786 1359.87 273.264" stroke="#37324A" stroke-width="7.17877" stroke-miterlimit="10" stroke-linecap="round"/>
<path d="M1382.53 266.587C1383.81 258.513 1377.68 250.832 1368.84 249.431C1360 248.03 1351.79 253.438 1350.52 261.512C1349.24 269.586 1355.38 277.267 1364.22 278.668C1373.06 280.069 1381.26 274.66 1382.53 266.587Z" fill="#37324A"/>
<path d="M1481.2 333.19C1479.3 342.26 1473.58 350.376 1465.47 354.913C1457.37 359.45 1447.35 360.165 1438.77 356.824" stroke="#37324A" stroke-width="7.17877" stroke-miterlimit="10" stroke-linecap="round"/>
<path d="M1368.7 322.208C1395.82 322.208 1417.8 300.189 1417.8 273.029C1417.8 245.87 1395.82 223.853 1368.7 223.853C1341.58 223.853 1319.6 245.87 1319.6 273.029C1319.6 300.189 1341.58 322.208 1368.7 322.208Z" stroke="#37324A" stroke-width="7.17877" stroke-miterlimit="10" stroke-linecap="round"/>
<path d="M1509.32 316.479C1536.44 316.479 1558.42 294.46 1558.42 267.301C1558.42 240.141 1536.44 218.124 1509.32 218.124C1482.2 218.124 1460.22 240.141 1460.22 267.301C1460.22 294.46 1482.2 316.479 1509.32 316.479Z" stroke="#37324A" stroke-width="7.17877" stroke-miterlimit="10" stroke-linecap="round"/>
<path d="M1411.84 245.817C1424 241.759 1446.16 240.087 1461.66 243.191" stroke="#37324A" stroke-width="7.17877" stroke-miterlimit="10" stroke-linecap="round"/>
<path d="M1980.32 394.062C2057.55 394.062 2120 379.26 2120 360.878C2120 342.497 2057.55 327.694 1980.32 327.694C1903.1 327.694 1840.64 342.497 1840.64 360.878C1840.64 379.26 1903.1 394.062 1980.32 394.062Z" fill="#A393F5"/>
<path d="M1582.26 509.604C1615.87 527.271 1720.99 573.58 1757.46 584.084C1809.65 598.886 1867.58 634.219 1898.56 679.336C1925.74 718.964 1937.17 823.047 1920.73 866.73C1920.73 866.73 1830.63 908.507 1783.44 921.637C1673.79 951.956 1575.35 976.304 1458.55 988.957C1396.58 995.639 1325.79 927.127 1263.34 927.365C1220.44 927.365 1147.02 942.882 1111.03 915.67C1074.09 887.976 1068.13 837.845 1066.7 795.115C1065.27 752.386 1061.21 697.48 1091.96 663.819C1111.98 641.854 1139.4 628.724 1166.09 616.076C1196.84 601.512 1227.83 586.71 1258.58 572.15C1275.26 564.272 1392.05 538.728 1429.48 509.843C1453.55 562.123 1560.81 531.089 1582.26 509.604Z" fill="#73B4FF"/>
<path d="M1747.2 905.4C1745.05 890.36 1743.15 875.319 1741 860.283C1737.67 836.169 1734.57 812.297 1731.23 788.187C1730.52 782.697 1729.8 776.968 1729.09 771.478C1728.61 767.894 1723.36 769.567 1723.84 772.908C1725.98 787.949 1727.89 802.989 1730.04 818.025C1733.38 842.14 1736.47 866.011 1739.81 890.121C1740.53 895.612 1741.24 901.34 1741.96 906.83C1742.19 910.414 1747.68 908.741 1747.2 905.4Z" fill="#22BD8A"/>
<path d="M1677.6 572.863C1687.85 615.593 1674.26 671.452 1671.64 714.663C1669.5 751.188 1673.55 812.299 1677.13 848.824C1679.99 879.143 1681.66 920.2 1676.41 951.95C1676.41 951.95 1716.45 943.595 1730.52 939.297C1752.68 932.377 1774.37 924.022 1796.78 917.336C1838.97 904.921 1877.58 887.259 1919.77 872.219C1923.11 871.023 1932.64 865.056 1935.27 862.43C1937.65 859.804 1938.36 858.613 1939.08 855.267C1947.42 811.346 1946.23 767.897 1935.74 724.69C1917.15 646.627 1834.92 643.525 1800.35 578.115" fill="#37324A"/>
<path d="M1738.15 659.517C1804.41 659.517 1858.28 605.802 1858.28 539.201C1858.28 472.838 1804.65 418.885 1738.15 418.885C1671.64 418.885 1618.01 472.595 1618.01 539.201C1618.25 605.802 1671.88 659.517 1738.15 659.517Z" fill="#37324A"/>
<path d="M1832.06 483.82L1861.38 428.437C1864.24 421.994 1858.52 415.308 1851.61 417.219L1786.06 436.792C1785.11 437.035 1783.92 437.273 1782.72 437.03L1710.74 428.437C1709.79 428.437 1708.59 427.961 1707.88 427.484L1656.87 399.075C1649.96 395.258 1642.09 402.893 1645.67 409.818L1664.97 470.69" fill="#37324A"/>
<path d="M1697.62 574.77C1691.19 571.429 1685.95 563.789 1683.56 557.341C1683.33 556.865 1683.33 556.626 1683.33 556.15C1685.71 549.706 1707.4 554 1710.97 557.584C1713.12 559.729 1699.53 575.484 1697.62 574.77Z" fill="white"/>
<path d="M1736.23 576.204C1724.79 585.754 1708.11 583.605 1699.05 571.905C1698.1 570.714 1695.95 570.714 1695.24 571.905C1691.18 576.919 1682.36 578.591 1676.41 579.068C1669.73 579.545 1664.73 576.68 1660.67 571.429C1658.53 568.564 1654.48 572.625 1656.86 575.251C1661.87 581.456 1668.54 585.035 1676.65 584.558C1684.03 584.082 1694.52 581.932 1699.29 575.966C1698.1 575.966 1696.67 575.966 1695.48 575.966C1706.68 590.048 1726.94 591.483 1740.52 580.264C1742.91 577.876 1738.86 574.054 1736.23 576.204Z" fill="white"/>
<path d="M1772.95 548.753C1778.9 548.753 1783.67 543.977 1783.67 538.011C1783.67 532.044 1778.9 527.269 1772.95 527.269C1766.98 527.269 1762.22 532.044 1762.22 538.011C1762.46 543.977 1767.22 548.753 1772.95 548.753Z" fill="white"/>
<path d="M1643.51 539.681C1649.48 539.681 1654.24 534.906 1654.24 528.939C1654.24 522.972 1649.48 518.197 1643.51 518.197C1637.56 518.197 1632.79 522.972 1632.79 528.939C1632.79 534.906 1637.56 539.681 1643.51 539.681Z" fill="white"/>
<path d="M1881.64 887.975C1894.75 880.336 1904.76 863.627 1911.91 850.259C1935.99 806.81 1923.35 752.623 1905.96 706.072C1888.56 659.52 1866.39 611.538 1873.06 562.36C1876.87 533.952 1890.7 506.978 1911.68 487.162C1926.69 473.079 1945.76 462.337 1966.26 462.099C1986.76 461.622 2008.21 473.556 2015.12 492.89C2022.99 514.856 2011.07 538.727 1996.53 556.87C1981.99 575.014 1963.87 591.007 1955.53 612.73C1941.47 649.969 1960.78 690.793 1966.5 730.181C1973.17 775.537 1967.21 836.653 1932.65 864.342" fill="#37324A"/>
<path d="M1877.82 648.538C1899.27 676.47 1919.06 707.267 1928.83 741.404C1937.41 771.48 1935.74 802.753 1930.74 833.311C1928.35 847.632 1925.73 862.911 1918.58 875.802C1916.91 878.905 1921.68 881.769 1923.35 878.667C1929.55 866.967 1932.64 853.599 1935.03 840.708C1937.65 825.91 1939.32 810.869 1940.27 795.829C1940.98 779.835 1940.03 764.079 1936.46 748.562C1932.17 729.704 1924.54 711.799 1915.24 694.852C1905.94 677.9 1894.74 661.668 1882.82 646.151C1880.44 643.048 1875.68 645.913 1877.82 648.538Z" fill="white"/>
<path d="M1859.94 750.954C1841.11 765.99 1827.29 786.521 1819.42 809.201C1811.32 833.073 1811.08 858.379 1817.28 882.727C1819.18 890.605 1821.81 898.244 1824.43 905.884C1826.58 912.089 1829.2 918.294 1834.92 922.116C1837.78 924.027 1840.64 919.252 1837.78 917.341C1832.77 914 1830.86 907.313 1829.2 901.823C1827.05 895.618 1824.91 889.17 1823.24 882.965C1819.9 870.789 1817.99 858.379 1818.47 845.726C1818.95 823.522 1826.1 801.323 1838.25 782.703C1845.17 771.961 1853.75 762.649 1863.76 754.533C1866.62 752.622 1862.81 748.805 1859.94 750.954Z" fill="white"/>
<path d="M1708.35 730.655C1707.16 760.26 1708.59 790.098 1710.02 819.698C1711.45 852.644 1713.12 885.585 1713.36 918.53C1713.36 934.286 1713.36 950.041 1711.92 965.797C1711.68 969.376 1717.17 969.376 1717.41 965.797C1720.03 936.197 1718.84 906.115 1717.88 876.277C1716.69 843.332 1715.03 810.391 1714.07 777.683C1713.6 761.928 1713.36 746.411 1714.07 730.655C1714.07 727.314 1708.59 727.314 1708.35 730.655Z" fill="white"/>
<path d="M1742.68 731.855C1748.16 761.931 1748.4 792.966 1747.92 823.285C1747.45 855.75 1745.78 887.976 1745.3 920.445C1745.06 935.719 1745.06 950.998 1746.02 966.277C1746.25 969.856 1751.74 969.856 1751.5 966.277C1749.35 936.915 1751.02 907.072 1751.97 877.71C1753.16 844.769 1754.36 811.586 1752.93 778.64C1752.21 762.408 1751.02 746.176 1747.92 730.42C1747.45 726.841 1741.96 728.271 1742.68 731.855Z" fill="white"/>
<path d="M1626.83 962.459C1600.13 883.681 1515.52 666.683 1485.24 588.382C1478.33 570.477 1461.65 558.062 1442.34 557.109H803.781C779.47 555.674 760.639 577.878 765.882 601.511C789.007 704.161 846.447 828.056 891.257 1003.52C1018.54 1010.68 1120.8 1010.44 1245.7 1005.19C1344.37 1001.13 1443.53 992.774 1541.26 979.645C1570.57 975.827 1597.75 970.099 1626.83 962.459Z" fill="#FFDB65"/>
<path d="M1042.14 838.085C1054.3 821.848 1066.46 805.616 1078.61 789.622C1080.28 787.234 1081.95 785.085 1083.86 782.702C1082.42 782.94 1080.99 783.179 1079.56 783.179C1091.96 798.458 1104.12 813.732 1116.51 829.011C1118.18 831.16 1120.08 833.31 1121.75 835.459C1122.94 836.889 1125.09 836.174 1126.05 834.982C1138.68 817.316 1151.55 799.649 1164.18 781.983C1166.09 779.357 1167.76 776.969 1169.66 774.343C1168.23 774.581 1166.8 774.581 1165.37 774.824C1179.43 792.01 1193.74 808.961 1207.8 826.147C1209.71 828.534 1211.85 830.922 1213.76 833.31C1214.95 834.739 1217.1 834.024 1218.05 832.833C1229.25 816.596 1240.45 800.602 1251.66 784.37C1253.33 781.983 1254.76 779.833 1256.43 777.45C1258.33 774.581 1253.57 771.717 1251.66 774.581C1240.45 790.818 1229.25 806.812 1218.05 823.044C1216.38 825.432 1214.95 827.581 1213.28 829.969C1214.71 829.726 1216.14 829.488 1217.57 829.488C1203.51 812.302 1189.21 795.35 1175.15 778.165C1173.24 775.777 1171.09 773.39 1169.19 771.002C1168 769.572 1165.85 770.287 1164.89 771.479C1152.26 789.145 1139.39 806.812 1126.76 824.474C1124.85 827.1 1123.18 829.488 1121.27 832.113C1122.7 831.875 1124.14 831.637 1125.57 831.637C1113.17 816.358 1101.01 801.084 1088.62 785.805C1086.95 783.655 1085.05 781.506 1083.38 779.357C1082.18 777.927 1080.04 778.642 1079.09 779.833C1066.93 796.07 1054.77 812.302 1042.62 828.296C1040.95 830.684 1039.28 832.833 1037.37 835.221C1035.47 838.085 1040.23 840.949 1042.14 838.085Z" fill="white"/>
<path d="M777.812 629.916C775.663 619.889 775.901 608.909 786.153 603.657C790.919 601.031 796.876 599.839 802.124 599.601C804.745 599.601 807.366 599.601 809.988 599.601C824.529 599.601 838.827 599.601 853.368 599.601C907.477 599.601 961.581 599.363 1015.69 599.363C1082.43 599.363 1149.17 599.124 1215.91 598.881C1270.02 598.881 1324.12 598.643 1378.23 598.643C1392.53 598.643 1406.6 598.643 1420.9 598.643C1423.52 598.643 1426.14 598.405 1428.76 598.643C1446.16 599.601 1451.41 614.399 1456.89 628.248C1487.64 705.115 1517.91 782.462 1546.27 860.282C1559.62 896.569 1571.54 933.094 1583.7 969.857C1586.32 977.973 1597.28 974.87 1603.72 973.917C1618.97 971.529 1633.99 967.469 1648.77 963.651C1675.94 956.489 1702.87 948.372 1729.81 940.495C1785.82 924.501 1842.07 907.787 1896.18 885.589C1922.88 874.608 1949.09 862.432 1974.13 848.111C1996.77 835.219 2017.98 820.655 2035.38 800.844C2068.51 763.362 2085.67 714.665 2092.35 665.726C2098.79 617.263 2096.4 566.417 2078.76 520.342C2070.42 498.381 2058.74 477.612 2044.2 458.992C2036.57 449.204 2028.23 439.896 2019.41 431.06C2009.88 421.753 1999.39 413.637 1990.33 403.848C1970.78 382.841 1957.44 354.432 1967.92 326.023C1969.12 322.683 1963.87 321.253 1962.68 324.594C1952.91 350.615 1962.21 377.112 1978.65 398.358C1986.76 408.862 1996.29 417.216 2006.06 425.809C2015.84 434.406 2024.89 443.952 2033.23 453.741C2065.41 491.938 2084.48 539.205 2089.01 588.859C2093.78 640.42 2086.87 695.326 2065.89 742.831C2055.64 765.987 2041.58 787.471 2023.7 805.376C2004.16 824.954 1980.08 839.037 1955.77 851.69C1870.44 896.807 1776.05 921.394 1683.81 947.896C1667.12 952.667 1650.44 957.203 1633.51 961.502C1620.64 964.605 1607.05 968.665 1593.47 969.142C1592.04 969.142 1590.61 969.38 1589.18 968.903C1588.46 968.665 1588.46 968.665 1589.18 969.618C1588.46 968.665 1588.22 966.516 1587.99 965.32C1585.6 957.203 1582.98 949.087 1580.36 941.21C1574.16 922.113 1567.49 903.493 1560.81 884.631C1531.73 803.465 1500.51 723.258 1468.57 643.284C1465.95 636.602 1463.09 629.916 1460.47 622.996C1457.84 616.548 1455.7 609.628 1451.17 604.133C1444.97 596.975 1436.15 593.153 1426.86 592.915C1416.37 592.676 1405.88 592.915 1395.4 592.915C1345.81 592.915 1296 593.153 1246.42 593.153C1179.92 593.153 1113.18 593.391 1046.68 593.63C988.757 593.63 930.835 593.872 872.914 593.872C855.036 593.872 837.397 593.872 819.524 593.872C811.179 593.872 802.6 593.391 794.255 595.064C786.629 596.498 778.765 599.839 774.71 606.759C769.943 614.16 770.897 623.234 772.565 631.35C773.28 634.929 778.527 633.261 777.812 629.916Z" fill="#37324A"/>
<path d="M2073.51 -121.579V-121.818C2073.51 -140.199 2032.28 -155 1981.51 -155C1930.74 -155 1889.5 -140.199 1889.5 -121.818L1840.4 360.878C1840.4 342.496 1902.85 327.694 1980.08 327.694C2057.3 327.694 2119.75 342.496 2119.75 360.878L2073.51 -121.579Z" fill="#FFDB65"/>
<path d="M2120 360.874H2114.52C2114.52 346.076 2060.65 330.559 1980.32 330.559C1899.99 330.559 1846.13 346.314 1846.13 360.874H1840.64C1840.64 337.483 1912.63 324.83 1980.32 324.83C2048.02 324.83 2120 337.483 2120 360.874Z" fill="#A393F5"/>
<path d="M1875.2 62.2353C1883.07 50.2995 1898.8 43.615 1912.86 46.9573C1920.97 48.8669 1927.64 54.1192 1934.79 58.1772C1941.94 62.2353 1949.33 65.1 1957.44 66.055C1965.78 67.0096 1974.36 66.055 1982.22 63.4291C1990.09 60.5644 1997 55.5513 2004.87 52.9254C2021.32 47.4348 2035.38 61.5195 2051.11 63.9066C2067.08 66.5325 2083.05 58.8931 2092.11 45.5247C2094.01 42.6605 2089.25 39.7958 2087.34 42.6605C2078.76 55.5513 2062.31 61.7582 2047.53 57.2222C2032.52 52.9254 2019.17 41.9442 2002.96 47.6735C1994.85 50.5382 1987.94 55.7901 1979.84 58.416C1971.5 61.0419 1962.68 61.7578 1954.33 60.0869C1945.75 58.416 1938.61 54.1192 1931.21 49.5832C1924.54 45.5251 1917.87 41.9442 1910 40.9891C1894.51 39.0795 1879.02 46.7185 1870.67 59.6094C1868.53 62.4741 1873.29 65.1 1875.2 62.2353Z" fill="white"/>
<path d="M1864.71 161.07C1874 148.417 1891.64 142.449 1906.66 146.03C1915.71 147.94 1923.34 153.431 1931.45 157.489C1939.32 161.547 1947.42 163.934 1956.24 164.889C1965.3 165.844 1974.83 164.889 1983.41 162.024C1991.99 159.16 1999.38 154.147 2007.96 151.759C2025.84 146.508 2041.09 159.637 2058.01 162.502C2075.18 165.367 2093.53 158.444 2104.02 144.359C2106.17 141.495 2101.39 138.869 2099.25 141.495C2089.24 154.863 2071.13 160.354 2055.39 156.295C2038.94 151.998 2024.41 141.256 2006.77 146.508C1997.71 149.134 1990.08 154.385 1981.03 157.25C1972.21 159.876 1962.67 160.592 1953.61 159.16C1944.32 157.728 1936.21 153.908 1928.11 149.372C1920.72 145.076 1913.09 141.256 1904.51 140.062C1887.83 137.914 1870.19 144.598 1860.18 158.444C1857.8 161.07 1862.56 163.935 1864.71 161.07Z" fill="white"/>
<path d="M1808.7 449.68C1818.23 446.816 1827.77 443.713 1837.3 440.611C1838.73 440.134 1839.92 439.653 1841.35 439.415C1840.4 437.985 1839.21 436.789 1838.26 435.359C1833.97 442.76 1829.68 450.157 1825.14 457.32C1824.43 458.277 1823.95 459.469 1823.24 460.422C1821.33 463.529 1826.1 466.155 1828.01 463.286C1832.3 455.89 1836.59 448.489 1841.12 441.326C1841.83 440.372 1842.31 439.176 1843.02 438.223C1844.21 436.312 1842.31 433.448 1839.92 434.163C1830.39 437.027 1820.86 440.134 1811.32 443.237C1809.89 443.713 1808.7 444.19 1807.27 444.428C1803.69 445.624 1805.13 450.876 1808.7 449.68Z" fill="white"/>
<path d="M1656.63 451.113L1653.05 447.052C1667.59 434.399 1683.56 425.092 1701.2 419.363L1702.87 424.615C1685.95 429.867 1670.45 438.936 1656.63 451.113Z" fill="#FFEBE0"/>
<path d="M1586.79 245.576C1641.38 208.335 1661.4 110.937 1610.15 66.5347C1589.89 50.5404 1547.23 50.7792 1529.35 68.2056C1496.93 98.2846 1511.71 157.488 1542.22 186.134" fill="#FF5794"/>
<path d="M1418.03 75.3681C1403.73 79.9037 1391.34 90.1691 1385.14 104.015C1375.61 125.499 1383.23 151.759 1399.2 168.947C1415.17 186.135 1437.82 195.684 1460.46 201.174C1484.06 206.904 1510.04 209.53 1527.68 226.24C1537.69 235.551 1578.69 269.688 1598.71 261.094C1616.59 247.486 1605.62 205.71 1601.09 187.09C1594.41 159.637 1556.28 134.81 1536.74 114.757C1518.86 96.6143 1491.69 75.8456 1465.46 73.2197C1450.69 72.2647 1432.34 71.0713 1418.03 75.3681Z" fill="#FF5794"/>
<path d="M1284.32 120.486C1277.16 173.005 1312.2 203.323 1324.36 220.033C1326.98 223.614 1331.03 226.956 1335.08 226.001C1340.81 224.807 1342.24 217.646 1343.19 211.917C1347.72 185.419 1365.84 161.785 1390.15 150.804C1399.2 146.746 1408.98 144.12 1416.6 137.674C1424.23 131.229 1428.52 119.292 1422.57 111.415C1410.41 95.1816 1356.06 98.7626 1346.05 111.176C1333.42 126.931 1287.18 99.9564 1284.32 120.486Z" fill="#FF5794"/>
</g>
</g>
<defs>
<clipPath id="clip0">
<rect width="1990" height="853" fill="white"/>
</clipPath>
</defs>
</svg>
