<svg width="1990" height="853" viewBox="0 0 1990 853" fill="none" xmlns="http://www.w3.org/2000/svg">
<g clip-path="url(#clip0)">
<rect width="1990" height="853" fill="#3D2E43"/>
<circle cx="306.5" cy="617.5" r="464" fill="url(#paint0_linear)"/>
<circle cx="306.5" cy="617.5" r="464" fill="url(#paint1_linear)"/>
<circle cx="306.5" cy="617.5" r="464" stroke="#FFB085" stroke-width="39"/>
<circle cx="306.5" cy="617.5" r="464" stroke="#FEC76A" stroke-width="39"/>
<path d="M702.489 808C672.989 938 704.489 1023 749.489 1054.5" stroke="#BABABA" stroke-width="19" stroke-linecap="round" stroke-linejoin="round"/>
<rect x="922" y="266" width="876" height="321.845" rx="85.0194" fill="white"/>
<path d="M1259.23 467.468C1263.52 465.467 1266.28 462.133 1266.28 456.99C1266.28 449.179 1259.14 443.654 1248.85 443.654H1225.13V493.186H1249.9C1260.57 493.186 1268 487.376 1268 479.47C1268 473.469 1264.09 468.992 1259.23 467.468ZM1248.85 452.703C1252.66 452.703 1255.33 454.989 1255.33 458.133C1255.33 461.276 1252.66 463.467 1248.85 463.467H1236.09V452.703H1248.85ZM1236.09 484.137V472.04H1249.9C1254.18 472.04 1257.04 474.516 1257.04 478.136C1257.04 481.756 1254.18 484.137 1249.9 484.137H1236.09Z" fill="#3D2E43"/>
<path d="M1323.12 493.186L1300.36 467.468L1321.22 443.654H1308.17L1291.59 462.895H1288.93V443.654H1277.97V493.186H1288.93V473.469H1291.59L1308.74 493.186H1323.12Z" fill="#3D2E43"/>
<path d="M1351.09 494.139C1366.61 494.139 1377.57 483.47 1377.57 468.42C1377.57 453.37 1366.61 442.701 1351.09 442.701C1335.56 442.701 1324.6 453.37 1324.6 468.42C1324.6 483.47 1335.56 494.139 1351.09 494.139ZM1351.09 484.137C1342.13 484.137 1336.03 477.755 1336.03 468.42C1336.03 459.085 1342.13 452.703 1351.09 452.703C1360.04 452.703 1366.14 459.085 1366.14 468.42C1366.14 477.755 1360.04 484.137 1351.09 484.137Z" fill="#3D2E43"/>
<path d="M1420.24 463.181H1398.05V443.654H1387.09V493.186H1398.05V473.183H1420.24V493.186H1431.2V443.654H1420.24V463.181Z" fill="#3D2E43"/>
<path d="M1466.9 493.186V453.656H1484.05V443.654H1438.8V453.656H1455.95V493.186H1466.9Z" fill="#3D2E43"/>
<path d="M1509.99 442.701C1500.37 442.701 1491.89 447.655 1489.42 456.228L1499.51 457.942C1501.04 454.894 1504.47 452.036 1509.42 452.036C1515.42 452.036 1518.95 456.323 1519.42 462.8H1508.75C1494.18 462.8 1486.94 469.182 1486.94 478.327C1486.94 487.566 1494.08 494.139 1504.18 494.139C1512.28 494.139 1517.71 489.471 1520.09 485.375L1522.38 493.186H1530.47V465.372C1530.47 450.989 1522.66 442.701 1509.99 442.701ZM1506.75 484.899C1501.42 484.899 1497.99 482.137 1497.99 477.85C1497.99 474.04 1500.75 471.373 1509.13 471.373H1519.52C1519.52 479.47 1514.37 484.899 1506.75 484.899Z" fill="#3D2E43"/>
<path d="M1587.51 493.186L1564.74 467.468L1585.61 443.654H1572.56L1555.98 462.895H1553.31V443.654H1542.36V493.186H1553.31V473.469H1555.98L1573.13 493.186H1587.51Z" fill="#3D2E43"/>
<path d="M1617.05 493.186V453.656H1634.2V443.654H1588.95V453.656H1606.09V493.186H1617.05Z" fill="#3D2E43"/>
<path d="M1688.53 467.849C1688.53 453.56 1677.86 442.701 1662.81 442.701C1647.76 442.701 1637.09 453.465 1637.09 468.42C1637.09 483.375 1647.76 494.139 1662.81 494.139C1673.1 494.139 1682.81 489.281 1686.53 479.851L1676.24 478.136C1673.86 481.66 1669.28 484.137 1663.47 484.137C1655.09 484.137 1649.57 478.993 1648.52 471.373H1688.34C1688.43 470.325 1688.53 469.182 1688.53 467.849ZM1662.81 452.227C1669.67 452.227 1674.81 456.609 1676.62 462.8H1649.18C1650.99 456.418 1656.14 452.227 1662.81 452.227Z" fill="#3D2E43"/>
<path d="M1246.63 358.467C1236.92 358.467 1228.15 363.135 1224.25 372.184L1231.49 373.327C1233.87 368.85 1239.3 365.421 1246.16 365.421C1255.21 365.421 1261.78 371.136 1263.21 379.995H1240.06V386.853H1263.3C1262.07 396.188 1255.4 402.189 1245.87 402.189C1238.54 402.189 1232.73 398.57 1230.54 393.712L1223.39 394.855C1227.2 404.38 1236.35 409.238 1246.35 409.238C1261.02 409.238 1271.4 398.665 1271.4 383.805C1271.4 369.041 1261.11 358.467 1246.63 358.467Z" fill="#3D2E43"/>
<path d="M1322.02 408.286L1298.77 383.138L1320.11 359.42H1310.87L1292.58 379.9H1289.53V359.42H1281.91V408.286H1289.53V387.139H1292.49L1311.92 408.286H1322.02Z" fill="#3D2E43"/>
<path d="M1349.6 409.238C1359.6 409.238 1368.75 404.285 1372.56 394.759L1365.42 393.521C1363.22 398.474 1357.41 402.189 1350.08 402.189C1339.6 402.189 1332.45 394.855 1332.45 383.805C1332.45 372.851 1339.6 365.421 1350.08 365.421C1357.03 365.421 1362.56 368.85 1364.94 373.518L1372.18 372.279C1368.27 363.23 1359.41 358.467 1349.6 358.467C1334.84 358.467 1324.45 369.041 1324.45 383.805C1324.45 398.665 1334.84 409.238 1349.6 409.238Z" fill="#3D2E43"/>
<path d="M1388.8 408.286V366.374H1413.66V408.286H1421.28V359.42H1381.17V408.286H1388.8Z" fill="#3D2E43"/>
<path d="M1481.16 383.71C1481.16 369.041 1470.87 358.467 1456.39 358.467C1442 358.467 1431.71 369.041 1431.71 383.805C1431.71 398.665 1442.1 409.238 1456.86 409.238C1466.49 409.238 1475.34 404.666 1479.44 395.712L1472.3 394.569C1469.82 398.951 1464.29 402.189 1457.24 402.189C1447.43 402.189 1440.57 395.807 1439.72 386.091H1481.06C1481.16 384.948 1481.16 384.567 1481.16 383.71ZM1456.39 365.326C1465.06 365.326 1471.34 371.041 1472.87 379.519H1440C1441.62 370.946 1447.91 365.326 1456.39 365.326Z" fill="#3D2E43"/>
<path d="M1498.29 427.813V400.189C1501.81 404.761 1507.82 409.238 1516.87 409.238C1530.77 409.238 1540.78 398.665 1540.78 383.805C1540.78 369.041 1530.77 358.467 1516.87 358.467C1507.63 358.467 1501.53 363.135 1498.1 367.707L1495.81 359.42H1490.67V427.813H1498.29ZM1515.53 402.285C1505.34 402.285 1498.29 394.759 1498.29 383.805C1498.29 372.946 1505.34 365.421 1515.53 365.421C1525.82 365.421 1532.77 372.946 1532.77 383.805C1532.77 394.759 1525.82 402.285 1515.53 402.285Z" fill="#3D2E43"/>
<path d="M1569.18 408.286V366.374H1586.14V359.42H1544.61V366.374H1561.56V408.286H1569.18Z" fill="#3D2E43"/>
<path d="M1610.96 408.286C1622.11 408.286 1630.11 401.237 1630.11 391.235C1630.11 381.233 1622.21 374.184 1610.96 374.184H1602.3V359.42H1594.67V408.286H1610.96ZM1644.02 408.286V359.42H1636.4V408.286H1644.02ZM1602.3 381.043H1610.96C1617.73 381.043 1622.49 385.234 1622.49 391.235C1622.49 397.236 1617.73 401.427 1610.96 401.427H1602.3V381.043Z" fill="#3D2E43"/>
<path d="M1127.26 354.445C1167.85 354.445 1177.52 364.111 1177.52 404.698V449.145C1177.52 489.732 1167.85 499.398 1127.26 499.398H1082.81C1042.22 499.398 1032.56 489.732 1032.56 449.145V404.698C1032.56 364.111 1042.22 354.445 1082.81 354.445H1127.26ZM1070.31 399.743H1059.74C1056.72 399.743 1056.11 401.166 1056.11 402.734C1056.11 405.534 1059.7 419.417 1072.8 437.786C1081.53 450.325 1093.84 457.118 1105.04 457.118C1111.76 457.118 1112.59 455.609 1112.59 453.006V443.532C1112.59 440.507 1113.22 439.908 1115.36 439.908C1116.92 439.908 1119.61 440.692 1125.88 446.74C1133.05 453.902 1134.23 457.118 1138.26 457.118H1148.83C1151.85 457.118 1153.36 455.609 1152.49 452.631C1151.53 449.666 1148.11 445.35 1143.57 440.244C1141.11 437.332 1137.41 434.195 1136.29 432.627C1134.73 430.611 1135.17 429.722 1136.29 427.93L1136.48 427.666C1138.08 425.393 1149.26 409.349 1150.52 403.63C1151.19 401.39 1150.52 399.743 1147.32 399.743H1136.75C1134.06 399.743 1132.82 401.166 1132.15 402.734C1132.15 402.734 1126.78 415.833 1119.16 424.345C1116.69 426.809 1115.57 427.594 1114.23 427.594C1113.56 427.594 1112.58 426.803 1112.58 424.563V403.63C1112.58 400.942 1111.81 399.743 1109.57 399.743H1092.96C1091.28 399.743 1090.26 400.995 1090.26 402.174C1090.26 404.717 1094.07 405.31 1094.47 412.472V428.042C1094.47 431.455 1093.85 432.067 1092.51 432.067C1088.93 432.067 1080.21 418.91 1075.04 403.854C1074.02 400.922 1073.01 399.743 1070.31 399.743H1070.31Z" fill="#3D2E43"/>
<mask id="mask0" style="mask-type:alpha" maskUnits="userSpaceOnUse" x="-177" y="134" width="967" height="967">
<circle cx="306.5" cy="617.5" r="464" fill="url(#paint2_linear)" stroke="#FEC76A" stroke-width="39"/>
</mask>
<g mask="url(#mask0)">
<path d="M37.2889 356.324C43.2889 351.324 75.6889 329.224 109.289 336.824C151.289 346.324 192.789 360.324 217.789 356.824C242.789 353.324 239.289 383.324 226.789 384.824C214.289 386.324 213.789 396.324 107.789 364.324C70.7889 354.324 21.7889 393.824 26.2889 375.324C29.8889 360.524 37.2889 356.324 37.2889 356.324Z" fill="#724029" stroke="#724029" stroke-width="4" stroke-linecap="round" stroke-linejoin="round"/>
<path d="M340.788 348.325C335.288 341.658 329.588 325.725 350.788 315.325C377.288 302.325 396.788 308.825 450.788 288.825C504.788 268.825 542.288 316.325 545.788 334.325L507.288 327.825C479.788 321.325 407.988 316.325 340.788 348.325Z" fill="#724029" stroke="#724029" stroke-width="4" stroke-linecap="round" stroke-linejoin="round"/>
<g filter="url(#filter0_dd)">
<ellipse cx="130.05" cy="470.808" rx="51.4004" ry="70.0659" transform="rotate(14.0996 130.05 470.808)" fill="#724029"/>
</g>
<g filter="url(#filter1_dd)">
<ellipse cx="410.209" cy="503.801" rx="51.4004" ry="70.0659" transform="rotate(14.0996 410.209 503.801)" fill="#723230"/>
<ellipse cx="410.209" cy="503.801" rx="51.4004" ry="70.0659" transform="rotate(14.0996 410.209 503.801)" fill="#724029"/>
</g>
<path d="M139 735.5C215.5 740.5 243.5 743.5 312.5 758" stroke="#FBE29F" stroke-width="19" stroke-linecap="round" stroke-linejoin="round"/>
<path d="M138.789 735.324C166.289 728.491 240.189 723.424 315.789 757.824" stroke="#724029" stroke-width="19" stroke-linecap="round" stroke-linejoin="round"/>
<path d="M614 461C640 478.5 690.1 514.6 702.5 605C707.167 625.5 710.6 692.5 687 796.5C675.554 846.938 673.141 891.054 677.102 928C683.35 986.28 705.459 1026.72 733 1046" stroke="#FFA789" stroke-opacity="0.5" stroke-width="19" stroke-linecap="round" stroke-linejoin="round"/>
<path d="M628.289 477.324C654.289 494.824 704.389 530.924 716.789 621.324C721.456 641.824 724.889 708.824 701.289 812.824" stroke="#BABABA" stroke-width="19" stroke-linecap="round" stroke-linejoin="round"/>
<path d="M701.29 812.824C671.79 942.824 703.29 1027.82 748.29 1059.32" stroke="#BABABA" stroke-width="19" stroke-linecap="round" stroke-linejoin="round"/>
<g filter="url(#filter2_d)">
<circle cx="451.789" cy="491.824" r="172.5" fill="url(#paint3_linear)" stroke="#252733" stroke-width="20"/>
<path d="M619 440.324L646.789 433.824C651.956 447.658 659.189 489.824 646.789 547.824L619 541.324V440.324Z" fill="#252733" stroke="#252733" stroke-width="4" stroke-linecap="round" stroke-linejoin="round"/>
</g>
</g>
</g>
<defs>
<filter id="filter0_dd" x="-56.6572" y="331.696" width="373.415" height="406.222" filterUnits="userSpaceOnUse" color-interpolation-filters="sRGB">
<feFlood flood-opacity="0" result="BackgroundImageFix"/>
<feColorMatrix in="SourceAlpha" type="matrix" values="0 0 0 0 0 0 0 0 0 0 0 0 0 0 0 0 0 0 127 0" result="hardAlpha"/>
<feOffset dy="64"/>
<feGaussianBlur stdDeviation="67"/>
<feComposite in2="hardAlpha" operator="out"/>
<feColorMatrix type="matrix" values="0 0 0 0 0.983333 0 0 0 0 0.509197 0 0 0 0 0.241736 0 0 0 0.55 0"/>
<feBlend mode="normal" in2="BackgroundImageFix" result="effect1_dropShadow"/>
<feColorMatrix in="SourceAlpha" type="matrix" values="0 0 0 0 0 0 0 0 0 0 0 0 0 0 0 0 0 0 127 0" result="hardAlpha"/>
<feMorphology radius="1" operator="dilate" in="SourceAlpha" result="effect2_dropShadow"/>
<feOffset dy="16"/>
<feComposite in2="hardAlpha" operator="out"/>
<feColorMatrix type="matrix" values="0 0 0 0 0.984314 0 0 0 0 0.886275 0 0 0 0 0.623529 0 0 0 0.25 0"/>
<feBlend mode="normal" in2="effect1_dropShadow" result="effect2_dropShadow"/>
<feBlend mode="normal" in="SourceGraphic" in2="effect2_dropShadow" result="shape"/>
</filter>
<filter id="filter1_dd" x="223.502" y="364.689" width="373.415" height="406.222" filterUnits="userSpaceOnUse" color-interpolation-filters="sRGB">
<feFlood flood-opacity="0" result="BackgroundImageFix"/>
<feColorMatrix in="SourceAlpha" type="matrix" values="0 0 0 0 0 0 0 0 0 0 0 0 0 0 0 0 0 0 127 0" result="hardAlpha"/>
<feOffset dy="64"/>
<feGaussianBlur stdDeviation="67"/>
<feComposite in2="hardAlpha" operator="out"/>
<feColorMatrix type="matrix" values="0 0 0 0 0.983333 0 0 0 0 0.509197 0 0 0 0 0.241736 0 0 0 1 0"/>
<feBlend mode="normal" in2="BackgroundImageFix" result="effect1_dropShadow"/>
<feColorMatrix in="SourceAlpha" type="matrix" values="0 0 0 0 0 0 0 0 0 0 0 0 0 0 0 0 0 0 127 0" result="hardAlpha"/>
<feMorphology radius="1" operator="dilate" in="SourceAlpha" result="effect2_dropShadow"/>
<feOffset dy="16"/>
<feComposite in2="hardAlpha" operator="out"/>
<feColorMatrix type="matrix" values="0 0 0 0 0.984314 0 0 0 0 0.886275 0 0 0 0 0.623529 0 0 0 0.25 0"/>
<feBlend mode="normal" in2="effect1_dropShadow" result="effect2_dropShadow"/>
<feBlend mode="normal" in="SourceGraphic" in2="effect2_dropShadow" result="shape"/>
</filter>
<filter id="filter2_d" x="269.289" y="309.324" width="386.347" height="380" filterUnits="userSpaceOnUse" color-interpolation-filters="sRGB">
<feFlood flood-opacity="0" result="BackgroundImageFix"/>
<feColorMatrix in="SourceAlpha" type="matrix" values="0 0 0 0 0 0 0 0 0 0 0 0 0 0 0 0 0 0 127 0" result="hardAlpha"/>
<feOffset dy="15"/>
<feComposite in2="hardAlpha" operator="out"/>
<feColorMatrix type="matrix" values="0 0 0 0 0.996078 0 0 0 0 0.745098 0 0 0 0 0.360784 0 0 0 1 0"/>
<feBlend mode="normal" in2="BackgroundImageFix" result="effect1_dropShadow"/>
<feBlend mode="normal" in="SourceGraphic" in2="effect1_dropShadow" result="shape"/>
</filter>
<linearGradient id="paint0_linear" x1="307" y1="725.5" x2="307" y2="134" gradientUnits="userSpaceOnUse">
<stop stop-color="#FFB085"/>
<stop offset="1" stop-color="#FFC7A9"/>
</linearGradient>
<linearGradient id="paint1_linear" x1="307" y1="725.5" x2="307" y2="134" gradientUnits="userSpaceOnUse">
<stop stop-color="#F6C760"/>
<stop offset="1" stop-color="#FBDD95"/>
</linearGradient>
<linearGradient id="paint2_linear" x1="307" y1="725.5" x2="307" y2="134" gradientUnits="userSpaceOnUse">
<stop stop-color="#F6C760"/>
<stop offset="1" stop-color="#FBDD95"/>
</linearGradient>
<linearGradient id="paint3_linear" x1="452.289" y1="309.324" x2="451.789" y2="674.324" gradientUnits="userSpaceOnUse">
<stop stop-color="white"/>
<stop offset="1" stop-color="#C4C4C4" stop-opacity="0"/>
</linearGradient>
<clipPath id="clip0">
<rect width="1990" height="853" fill="white"/>
</clipPath>
</defs>
</svg>
