<svg width="1990" height="853" viewBox="0 0 1990 853" fill="none" xmlns="http://www.w3.org/2000/svg">
<g clip-path="url(#clip0)">
<rect width="1990" height="853" fill="#A4A9FB"/>
<circle cx="1643.5" cy="971.5" r="774.5" fill="white"/>
<rect x="80" y="116" width="791" height="123" rx="10" fill="#FCA4CC"/>
<path d="M143.06 173.53H113.8V149.66H105V206.09H113.8V181.56H143.06V206.09H151.86V149.66H143.06V173.53Z" fill="white"/>
<path d="M193.375 207.19C210.645 207.19 222.855 194.98 222.855 177.82C222.855 160.77 210.645 148.56 193.375 148.56C176.215 148.56 164.005 160.77 164.005 177.82C164.005 194.98 176.215 207.19 193.375 207.19ZM193.375 199.05C181.385 199.05 173.245 190.47 173.245 177.82C173.245 165.28 181.385 156.59 193.375 156.59C205.475 156.59 213.615 165.28 213.615 177.82C213.615 190.47 205.475 199.05 193.375 199.05Z" fill="white"/>
<path d="M270.73 176.28C275.57 173.97 278.43 169.9 278.43 164.62C278.43 155.93 270.73 149.66 259.84 149.66H234.98V206.09H260.61C272.27 206.09 280.41 199.49 280.41 190.14C280.41 183.54 276.56 178.48 270.73 176.28ZM259.84 157.36C265.56 157.36 269.52 160.55 269.52 165.17C269.52 169.68 265.56 172.87 259.84 172.87H243.78V157.36H259.84ZM243.78 198.28V180.57H260.61C267.1 180.57 271.5 184.09 271.5 189.37C271.5 194.65 267.1 198.28 260.61 198.28H243.78Z" fill="white"/>
<path d="M319.166 207.19C336.436 207.19 348.646 194.98 348.646 177.82C348.646 160.77 336.436 148.56 319.166 148.56C302.006 148.56 289.796 160.77 289.796 177.82C289.796 194.98 302.006 207.19 319.166 207.19ZM319.166 199.05C307.176 199.05 299.036 190.47 299.036 177.82C299.036 165.28 307.176 156.59 319.166 156.59C331.266 156.59 339.406 165.28 339.406 177.82C339.406 190.47 331.266 199.05 319.166 199.05Z" fill="white"/>
<path d="M386.511 207.19C398.061 207.19 408.621 201.47 413.021 190.47L404.771 189.04C402.241 194.76 395.531 199.05 387.061 199.05C374.961 199.05 366.711 190.58 366.711 177.82C366.711 165.17 374.961 156.59 387.061 156.59C395.091 156.59 401.471 160.55 404.221 165.94L412.581 164.51C408.071 154.06 397.841 148.56 386.511 148.56C369.461 148.56 357.471 160.77 357.471 177.82C357.471 194.98 369.461 207.19 386.511 207.19Z" fill="white"/>
<path d="M444.775 206.09V157.69H464.355V149.66H416.395V157.69H435.975V206.09H444.775Z" fill="white"/>
<path d="M487.849 206.09L512.819 159.01H514.249V206.09H522.829V149.66H509.189L484.329 196.74H482.789V149.66H474.209V206.09H487.849Z" fill="white"/>
<path d="M610.968 206.09L584.128 177.05L608.768 149.66H598.098L576.978 173.31H573.458V149.66H564.658V206.09H573.458V181.67H576.868L599.308 206.09H610.968Z" fill="white"/>
<path d="M625.279 187.61C624.729 195.42 622.749 197.95 616.259 197.95C615.709 197.95 614.059 197.95 612.629 197.84L613.399 206.31C614.939 206.53 616.369 206.64 617.689 206.64C627.369 206.64 633.198 200.04 633.969 187.39L635.839 157.69H656.849V206.09H665.648V149.66H627.698L625.279 187.61Z" fill="white"/>
<path d="M704.976 196.19H703.546L684.406 149.66H674.946L700.026 209.39L698.266 214.45C696.616 218.96 694.636 220.61 690.126 220.61H680.776L681.546 228.64H689.686C698.376 228.64 703.216 224.9 706.406 216.21L730.386 149.66H721.146L704.976 196.19Z" fill="white"/>
<path d="M767.67 154.72C758.54 154.72 751.72 158.35 747.21 164.29C748.2 152.19 753.59 144.49 769.1 143.06C779.55 142.18 788.13 139.87 789.01 127.77L780.98 127C779.99 132.17 777.68 133.93 768.88 134.7C745.34 136.9 738.08 151.09 738.08 173.42C738.08 185.52 740.17 192.45 744.57 198.06C749.41 204 756.45 207.19 765.58 207.19C781.86 207.19 793.19 196.19 793.19 180.79C793.19 165.5 782.63 154.72 767.67 154.72ZM765.8 199.16C754.8 199.16 747.32 191.68 747.32 180.9C747.32 170.12 754.8 162.75 765.8 162.75C776.58 162.75 784.06 170.12 784.06 180.9C784.06 191.68 776.58 199.16 765.8 199.16Z" fill="white"/>
<path d="M826.086 148.56C816.186 148.56 807.606 153.73 804.416 162.31L812.666 163.63C815.196 159.01 820.036 156.15 825.756 156.15C833.566 156.15 838.626 161.54 839.176 171.88H825.976C809.806 171.88 801.446 179.03 801.446 189.48C801.446 199.93 809.476 207.19 820.916 207.19C830.706 207.19 836.316 202.13 839.616 197.18L842.036 206.09H847.976V174.52C847.976 157.69 839.396 148.56 826.086 148.56ZM822.566 199.6C815.196 199.6 810.356 195.64 810.356 189.26C810.356 183.32 814.646 179.47 826.086 179.47H839.176V180.9C839.176 193.44 831.916 199.6 822.566 199.6Z" fill="white"/>
<path d="M140.75 323.28C145.59 320.97 148.45 316.9 148.45 311.62C148.45 302.93 140.75 296.66 129.86 296.66H105V353.09H130.63C142.29 353.09 150.43 346.49 150.43 337.14C150.43 330.54 146.58 325.48 140.75 323.28ZM129.86 304.36C135.58 304.36 139.54 307.55 139.54 312.17C139.54 316.68 135.58 319.87 129.86 319.87H113.8V304.36H129.86ZM113.8 345.28V327.57H130.63C137.12 327.57 141.52 331.09 141.52 336.37C141.52 341.65 137.12 345.28 130.63 345.28H113.8Z" fill="white"/>
<path d="M211.431 295.56C200.211 295.56 190.091 300.95 185.581 311.4L193.941 312.72C196.691 307.55 202.961 303.59 210.881 303.59C221.331 303.59 228.921 310.19 230.571 320.42H203.841V328.34H230.681C229.251 339.12 221.551 346.05 210.551 346.05C202.081 346.05 195.371 341.87 192.841 336.26L184.591 337.58C188.991 348.58 199.551 354.19 211.101 354.19C228.041 354.19 240.031 341.98 240.031 324.82C240.031 307.77 228.151 295.56 211.431 295.56Z" fill="white"/>
<path d="M272.9 353.09V304.69H292.48V296.66H244.52V304.69H264.1V353.09H272.9Z" fill="white"/>
<path d="M326.256 354.19C343.526 354.19 355.736 341.98 355.736 324.82C355.736 307.77 343.526 295.56 326.256 295.56C309.096 295.56 296.886 307.77 296.886 324.82C296.886 341.98 309.096 354.19 326.256 354.19ZM326.256 346.05C314.266 346.05 306.126 337.47 306.126 324.82C306.126 312.28 314.266 303.59 326.256 303.59C338.356 303.59 346.496 312.28 346.496 324.82C346.496 337.47 338.356 346.05 326.256 346.05Z" fill="white"/>
<path d="M392.171 288.63C400.531 288.63 407.571 284.45 408.781 274.44H401.301C400.531 279.28 397.231 281.81 392.171 281.81C387.111 281.81 383.921 279.28 383.041 274.44H375.561C376.881 284.45 383.811 288.63 392.171 288.63ZM381.501 353.09L406.471 306.01H407.901V353.09H416.481V296.66H402.841L377.981 343.74H376.441V296.66H367.861V353.09H381.501Z" fill="white"/>
<path d="M467.111 353.09V304.69H495.821V353.09H504.621V296.66H458.311V353.09H467.111Z" fill="white"/>
<path d="M546.041 354.19C563.311 354.19 575.521 341.98 575.521 324.82C575.521 307.77 563.311 295.56 546.041 295.56C528.881 295.56 516.671 307.77 516.671 324.82C516.671 341.98 528.881 354.19 546.041 354.19ZM546.041 346.05C534.051 346.05 525.911 337.47 525.911 324.82C525.911 312.28 534.051 303.59 546.041 303.59C558.141 303.59 566.281 312.28 566.281 324.82C566.281 337.47 558.141 346.05 546.041 346.05Z" fill="white"/>
<path d="M588.248 369.81V353.09H632.578V369.81H641.378V344.95H631.918V296.66H593.638L590.998 326.69C589.788 340.11 586.708 344.95 580.438 344.95H579.448V369.81H588.248ZM594.408 344.95C597.268 342.2 598.918 336.92 599.798 326.91L601.778 304.69H623.118V344.95H594.408Z" fill="white"/>
<path d="M677.006 301.72C667.876 301.72 661.056 305.35 656.546 311.29C657.536 299.19 662.926 291.49 678.436 290.06C688.886 289.18 697.466 286.87 698.346 274.77L690.316 274C689.326 279.17 687.016 280.93 678.216 281.7C654.676 283.9 647.416 298.09 647.416 320.42C647.416 332.52 649.506 339.45 653.906 345.06C658.746 351 665.786 354.19 674.916 354.19C691.196 354.19 702.526 343.19 702.526 327.79C702.526 312.5 691.966 301.72 677.006 301.72ZM675.136 346.16C664.136 346.16 656.656 338.68 656.656 327.9C656.656 317.12 664.136 309.75 675.136 309.75C685.916 309.75 693.396 317.12 693.396 327.9C693.396 338.68 685.916 346.16 675.136 346.16Z" fill="white"/>
<path d="M740.152 354.19C757.422 354.19 769.632 341.98 769.632 324.82C769.632 307.77 757.422 295.56 740.152 295.56C722.992 295.56 710.782 307.77 710.782 324.82C710.782 341.98 722.992 354.19 740.152 354.19ZM740.152 346.05C728.162 346.05 720.022 337.47 720.022 324.82C720.022 312.28 728.162 303.59 740.152 303.59C752.252 303.59 760.392 312.28 760.392 324.82C760.392 337.47 752.252 346.05 740.152 346.05Z" fill="white"/>
<path d="M790.558 375.64V343.74C794.628 349.02 801.558 354.19 812.008 354.19C828.068 354.19 839.618 341.98 839.618 324.82C839.618 307.77 828.068 295.56 812.008 295.56C801.338 295.56 794.298 300.95 790.338 306.23L787.698 296.66H781.758V375.64H790.558ZM810.468 346.16C798.698 346.16 790.558 337.47 790.558 324.82C790.558 312.28 798.698 303.59 810.468 303.59C822.348 303.59 830.378 312.28 830.378 324.82C830.378 337.47 822.348 346.16 810.468 346.16Z" fill="white"/>
<path d="M897.999 353.09L871.159 324.05L895.799 296.66H885.129L864.009 320.31H860.489V296.66H851.689V353.09H860.489V328.67H863.899L886.339 353.09H897.999Z" fill="white"/>
<path d="M957.901 324.71C957.901 307.77 946.021 295.56 929.301 295.56C912.691 295.56 900.811 307.77 900.811 324.82C900.811 341.98 912.801 354.19 929.851 354.19C940.961 354.19 951.191 348.91 955.921 338.57L947.671 337.25C944.811 342.31 938.431 346.05 930.291 346.05C918.961 346.05 911.041 338.68 910.051 327.46H957.791C957.901 326.14 957.901 325.7 957.901 324.71ZM929.301 303.48C939.311 303.48 946.571 310.08 948.331 319.87H910.381C912.251 309.97 919.511 303.48 929.301 303.48Z" fill="white"/>
<path d="M966.21 181.48V174H888V181.48H966.21Z" fill="white"/>
<mask id="mask0" style="mask-type:alpha" maskUnits="userSpaceOnUse" x="869" y="-24" width="1549" height="1770">
<path d="M1643.5 1746C2071.24 1746 2418 1399.24 2418 971.5V-23.5H869V971.5C869 1399.24 1215.76 1746 1643.5 1746Z" fill="#C4C4C4"/>
</mask>
<g mask="url(#mask0)">
<path d="M1382.95 543.96C1437.36 584.141 1515.3 545.446 1547.47 521.075C1556.34 523.822 1610.86 513.173 1684.82 573.348C1799.08 666.309 1816.19 776.666 1826.5 856.309L1182.79 851.237C1198.29 669.452 1244.92 625.59 1258.61 606.507C1269.56 591.241 1346.06 558.448 1382.95 543.96Z" fill="#ACD2FF"/>
<path d="M1552.6 524.302L1584.45 244.875C1497.86 223.231 1322.18 178 1312.15 170.227C1299.61 160.512 1253.02 179.121 1249.8 220.883C1247.23 254.293 1258.48 324.638 1264.42 355.635C1284.49 481.579 1353.35 505.636 1383.72 497.551L1379.65 554.599C1459.8 612.084 1530.01 557.472 1552.6 524.302Z" fill="#FFA871"/>
<path d="M1383.84 518.97C1468.9 520.446 1505.93 415.56 1513.81 362.933C1461.29 477.271 1406.86 496.948 1386.21 492.494L1383.84 518.97Z" fill="#EC9061"/>
<path d="M1379.65 554.6L1387.26 492.401C1311.25 496.84 1274.22 405.551 1265.21 359.352C1254.1 374.85 1200.7 514.412 1181.13 586.12C1171.28 478.519 1217.36 382.303 1263.19 347.063L1262.39 337.097C1158.29 412.133 1160.04 558.707 1173.93 622.615C1174.13 659.606 1194.5 753 1201.32 728.697C1208.13 704.394 1201.32 705 1237.11 644.548C1272.9 584.095 1328 583.3 1379.65 554.6Z" fill="#393951"/>
<path d="M1355.5 566C1375 611 1510.5 630.5 1565 553" stroke="#658EE8" stroke-width="23"/>
<circle r="79.8323" transform="matrix(-0.880029 0.47492 0.47492 0.880029 1462.13 769.169)" fill="#FCA4CC"/>
<path d="M1533.39 737.037C1562.93 725.316 1614.27 759.387 1463 811.793C1310.14 864.748 1351.82 789.515 1384.76 780.179" stroke="white" stroke-width="28"/>
<path fill-rule="evenodd" clip-rule="evenodd" d="M1602.35 224.74C1605.91 217.422 1613.21 199.728 1613.89 187.499C1624.63 185.672 1637.96 182.056 1652.26 176.564C1879.77 126.045 1794.22 -30.6836 1726.2 -62.0841C1670.63 -115.424 1575.45 -125.511 1525.83 -86.6229C1525.83 -86.6229 1472.88 -40.5498 1456.26 12.3269C1452.19 -44.9103 1506.08 -94.0404 1533.53 -111.451C1502.01 -105.933 1441.14 -72.9675 1449.72 14.7565C1406.38 6.84104 1320.07 13.7308 1281.41 100.04C1280.65 100.277 1279.87 100.517 1279.07 100.763L1279.04 100.774C1253.68 108.588 1212.65 121.235 1197.74 169.355C1184.01 213.69 1240.71 256.524 1250.8 261.594C1247.71 236.017 1256.08 184.319 1314.29 182.139C1329.87 215.475 1378.41 281.306 1447.87 277.947C1465.88 277.076 1482.79 268.235 1498.64 259.948C1524.47 246.446 1547.49 234.412 1567.88 260.708C1581.77 278.617 1588.27 335.44 1520.23 339.238C1523.87 366.53 1529.04 395.068 1534.35 424.407C1565.75 597.768 1602.22 799.094 1358.55 936.374C1443.23 932.808 1628.42 858.276 1691.73 588.68C1713.49 608.378 1765.9 657.944 1785.58 699.805C1791.38 657.188 1792.24 595.074 1780.63 524.872C1794.11 463.443 1785.55 324.771 1643.44 261.51C1763.25 336.521 1780.39 446.236 1773.99 491.717C1756.33 416.905 1718.52 335.743 1643.44 261.51C1630.82 249.037 1617.15 236.759 1602.35 224.74ZM1744.99 -40.1052C1757.06 -22.6694 1765.41 -2.08088 1768.32 21.5449C1777.93 99.6932 1716.95 148.444 1663.4 171.98C1840.58 112.003 1791.62 5.59964 1744.99 -40.1052Z" fill="#393951"/>
<path d="M1446.63 299.853C1432.4 293.501 1398.53 285.727 1376.87 305.45" stroke="#3E394B" stroke-width="8" stroke-linecap="round"/>
<path d="M1321.58 308.254C1307.35 301.902 1284.34 296.715 1268.89 308.926" stroke="#3E394B" stroke-width="8" stroke-linecap="round"/>
<path d="M1348.02 329.556C1350.41 340.662 1352.48 367.865 1341.63 387.828C1335.3 399.472 1353.75 405.186 1366.58 401.389" stroke="#3E394B" stroke-width="8" stroke-linecap="round"/>
<path d="M1551.08 277.297C1543.48 278.829 1528.49 286.235 1529.33 303.599" stroke="#393951" stroke-width="8" stroke-linecap="round"/>
<path d="M1398.88 428.889C1392.36 435.291 1375.29 446.069 1359.14 437.957" stroke="#3E394B" stroke-width="8" stroke-linecap="round"/>
<path d="M1292.63 325.436C1286.41 330.009 1274.42 321.076 1269.2 316.038C1268.47 325.4 1279 334.329 1284.35 337.624L1292.63 325.436Z" fill="#3E394B"/>
<ellipse cx="1296.2" cy="344.693" rx="15.023" ry="21.0237" transform="rotate(4.45719 1296.2 344.693)" fill="#3E394B"/>
<path d="M1413.16 325.56C1419 331.523 1433.24 323.924 1439.63 319.379C1438.83 329.573 1426.15 337.414 1419.91 340.061L1413.16 325.56Z" fill="#3E394B"/>
<ellipse rx="16.1915" ry="22.011" transform="matrix(-0.996976 -0.0777143 -0.0777143 0.996976 1406.74 344.635)" fill="#3E394B"/>
<path d="M1600.82 141.85C1591.1 108.389 1547.49 36.6974 1450.78 17.6182C1488.49 -3.73865 1619.05 32.8234 1600.82 141.85Z" fill="#FF8194"/>
</g>
</g>
<defs>
<clipPath id="clip0">
<rect width="1990" height="853" fill="white"/>
</clipPath>
</defs>
</svg>
