<svg width="1990" height="853" viewBox="0 0 1990 853" fill="none" xmlns="http://www.w3.org/2000/svg">
<g clip-path="url(#clip0)">
<rect width="1990" height="853" fill="#0177FF"/>
<path d="M569 395.668C514.507 253.975 252.346 367.432 106 418" stroke="white" stroke-width="101"/>
<circle cx="-116" cy="766" r="545" fill="#97CFFE"/>
<path d="M568.5 394C623.009 536.277 264.459 779.142 -51 974" stroke="white" stroke-width="101"/>
<path d="M766.89 400.1C789.66 400.1 805.72 383.6 805.72 360.17C805.72 336.85 789.66 320.35 766.89 320.35C744.12 320.35 727.95 336.85 727.95 360.17C727.95 383.6 744.12 400.1 766.89 400.1ZM766.89 391.41C749.62 391.41 737.74 378.76 737.74 360.17C737.74 341.69 749.62 328.93 766.89 328.93C784.16 328.93 796.04 341.69 796.04 360.17C796.04 378.76 784.16 391.41 766.89 391.41ZM845.196 347.63C836.066 347.63 829.246 351.26 824.736 357.2C825.726 345.1 831.116 337.4 846.626 335.97C857.076 335.09 865.656 332.78 866.536 320.68L858.506 319.91C857.516 325.08 855.206 326.84 846.406 327.61C822.866 329.81 815.606 344 815.606 366.33C815.606 378.43 817.696 385.36 822.096 390.97C826.936 396.91 833.976 400.1 843.106 400.1C859.386 400.1 870.716 389.1 870.716 373.7C870.716 358.41 860.156 347.63 845.196 347.63ZM843.326 392.07C832.326 392.07 824.846 384.59 824.846 373.81C824.846 363.03 832.326 355.66 843.326 355.66C854.106 355.66 861.586 363.03 861.586 373.81C861.586 384.59 854.106 392.07 843.326 392.07ZM920.332 366.44H891.072V342.57H882.272V399H891.072V374.47H920.332V399H929.132V342.57H920.332V366.44ZM970.647 400.1C987.917 400.1 1000.13 387.89 1000.13 370.73C1000.13 353.68 987.917 341.47 970.647 341.47C953.487 341.47 941.277 353.68 941.277 370.73C941.277 387.89 953.487 400.1 970.647 400.1ZM970.647 391.96C958.657 391.96 950.517 383.38 950.517 370.73C950.517 358.19 958.657 349.5 970.647 349.5C982.747 349.5 990.887 358.19 990.887 370.73C990.887 383.38 982.747 391.96 970.647 391.96ZM1048 369.19C1052.84 366.88 1055.7 362.81 1055.7 357.53C1055.7 348.84 1048 342.57 1037.11 342.57H1012.25V399H1037.88C1049.54 399 1057.68 392.4 1057.68 383.05C1057.68 376.45 1053.83 371.39 1048 369.19ZM1037.11 350.27C1042.83 350.27 1046.79 353.46 1046.79 358.08C1046.79 362.59 1042.83 365.78 1037.11 365.78H1021.05V350.27H1037.11ZM1021.05 391.19V373.48H1037.88C1044.37 373.48 1048.77 377 1048.77 382.28C1048.77 387.56 1044.37 391.19 1037.88 391.19H1021.05ZM1074.27 380.52C1073.72 388.33 1071.74 390.86 1065.25 390.86C1064.7 390.86 1063.05 390.86 1061.62 390.75L1062.39 399.22C1063.93 399.44 1065.36 399.55 1066.68 399.55C1076.36 399.55 1082.19 392.95 1082.96 380.3L1084.83 350.6H1105.84V399H1114.64V342.57H1076.69L1074.27 380.52ZM1183.78 370.62C1183.78 353.68 1171.9 341.47 1155.18 341.47C1138.57 341.47 1126.69 353.68 1126.69 370.73C1126.69 387.89 1138.68 400.1 1155.73 400.1C1166.84 400.1 1177.07 394.82 1181.8 384.48L1173.55 383.16C1170.69 388.22 1164.31 391.96 1156.17 391.96C1144.84 391.96 1136.92 384.59 1135.93 373.37H1183.67C1183.78 372.05 1183.78 371.61 1183.78 370.62ZM1155.18 349.39C1165.19 349.39 1172.45 355.99 1174.21 365.78H1136.26C1138.13 355.88 1145.39 349.39 1155.18 349.39ZM1232.82 366.44H1203.56V342.57H1194.76V399H1203.56V374.47H1232.82V399H1241.62V342.57H1232.82V366.44ZM1270.71 399L1295.68 351.92H1297.11V399H1305.69V342.57H1292.05L1267.19 389.65H1265.65V342.57H1257.07V399H1270.71ZM1340.23 342.57C1327.91 342.57 1319.22 350.05 1319.22 360.61C1319.22 368.64 1324.28 375.02 1332.2 377.55L1317.79 399H1327.91L1341.22 378.76H1354.2V399H1363V342.57H1340.23ZM1340.23 370.73C1332.97 370.73 1328.13 366.66 1328.13 360.61C1328.13 354.56 1332.97 350.49 1340.23 350.49H1354.2V370.73H1340.23ZM756.44 538.1C767.99 538.1 778.55 532.38 782.95 521.38L774.7 519.95C772.17 525.67 765.46 529.96 756.99 529.96C744.89 529.96 736.64 521.49 736.64 508.73C736.64 496.08 744.89 487.5 756.99 487.5C765.02 487.5 771.4 491.46 774.15 496.85L782.51 495.42C778 484.97 767.77 479.47 756.44 479.47C739.39 479.47 727.4 491.68 727.4 508.73C727.4 525.89 739.39 538.1 756.44 538.1ZM801.697 537V488.6H830.407V537H839.207V480.57H792.897V537H801.697ZM863.357 559.55V527.65C867.427 532.93 874.357 538.1 884.807 538.1C900.867 538.1 912.417 525.89 912.417 508.73C912.417 491.68 900.867 479.47 884.807 479.47C874.137 479.47 867.097 484.86 863.137 490.14L860.497 480.57H854.557V559.55H863.357ZM883.267 530.07C871.497 530.07 863.357 521.38 863.357 508.73C863.357 496.19 871.497 487.5 883.267 487.5C895.147 487.5 903.177 496.19 903.177 508.73C903.177 521.38 895.147 530.07 883.267 530.07ZM945.829 479.47C935.929 479.47 927.349 484.64 924.159 493.22L932.409 494.54C934.939 489.92 939.779 487.06 945.499 487.06C953.309 487.06 958.369 492.45 958.919 502.79H945.719C929.549 502.79 921.189 509.94 921.189 520.39C921.189 530.84 929.219 538.1 940.659 538.1C950.449 538.1 956.059 533.04 959.359 528.09L961.779 537H967.719V505.43C967.719 488.6 959.139 479.47 945.829 479.47ZM942.309 530.51C934.939 530.51 930.099 526.55 930.099 520.17C930.099 514.23 934.389 510.38 945.829 510.38H958.919V511.81C958.919 524.35 951.659 530.51 942.309 530.51ZM1018.35 507.19C1023.19 504.88 1026.05 500.81 1026.05 495.53C1026.05 486.84 1018.35 480.57 1007.46 480.57H982.604V537H1008.23C1019.89 537 1028.03 530.4 1028.03 521.05C1028.03 514.45 1024.18 509.39 1018.35 507.19ZM1007.46 488.27C1013.18 488.27 1017.14 491.46 1017.14 496.08C1017.14 500.59 1013.18 503.78 1007.46 503.78H991.404V488.27H1007.46ZM991.404 529.19V511.48H1008.23C1014.72 511.48 1019.12 515 1019.12 520.28C1019.12 525.56 1014.72 529.19 1008.23 529.19H991.404ZM1066.79 538.1C1084.06 538.1 1096.27 525.89 1096.27 508.73C1096.27 491.68 1084.06 479.47 1066.79 479.47C1049.63 479.47 1037.42 491.68 1037.42 508.73C1037.42 525.89 1049.63 538.1 1066.79 538.1ZM1066.79 529.96C1054.8 529.96 1046.66 521.38 1046.66 508.73C1046.66 496.19 1054.8 487.5 1066.79 487.5C1078.89 487.5 1087.03 496.19 1087.03 508.73C1087.03 521.38 1078.89 529.96 1066.79 529.96ZM1147.45 537V480.57H1138.65V507.41C1134.69 509.17 1129.63 510.05 1125.45 510.05C1117.09 510.05 1112.8 505.76 1112.8 497.18V480.57H1104V497.18C1104 510.49 1111.59 518.08 1124.57 518.08C1129.3 518.08 1134.69 517.09 1138.65 515.55V537H1147.45ZM1200.92 504.44H1171.66V480.57H1162.86V537H1171.66V512.47H1200.92V537H1209.72V480.57H1200.92V504.44ZM1238.8 537L1263.77 489.92H1265.2V537H1273.78V480.57H1260.14L1235.28 527.65H1233.74V480.57H1225.16V537H1238.8ZM1335.5 537L1308.66 507.96L1333.3 480.57H1322.63L1301.51 504.22H1297.99V480.57H1289.19V537H1297.99V512.58H1301.4L1323.84 537H1335.5ZM1362.95 479.47C1353.05 479.47 1344.47 484.64 1341.28 493.22L1349.53 494.54C1352.06 489.92 1356.9 487.06 1362.62 487.06C1370.43 487.06 1375.49 492.45 1376.04 502.79H1362.84C1346.67 502.79 1338.31 509.94 1338.31 520.39C1338.31 530.84 1346.34 538.1 1357.78 538.1C1367.57 538.1 1373.18 533.04 1376.48 528.09L1378.9 537H1384.84V505.43C1384.84 488.6 1376.26 479.47 1362.95 479.47ZM1359.43 530.51C1352.06 530.51 1347.22 526.55 1347.22 520.17C1347.22 514.23 1351.51 510.38 1362.95 510.38H1376.04V511.81C1376.04 524.35 1368.78 530.51 1359.43 530.51ZM1448.04 479.47C1436.82 479.47 1426.7 484.86 1422.19 495.31L1430.55 496.63C1433.3 491.46 1439.57 487.5 1447.49 487.5C1457.94 487.5 1465.53 494.1 1467.18 504.33H1440.45V512.25H1467.29C1465.86 523.03 1458.16 529.96 1447.16 529.96C1438.69 529.96 1431.98 525.78 1429.45 520.17L1421.2 521.49C1425.6 532.49 1436.16 538.1 1447.71 538.1C1464.65 538.1 1476.64 525.89 1476.64 508.73C1476.64 491.68 1464.76 479.47 1448.04 479.47ZM1535.09 537L1508.25 507.96L1532.89 480.57H1522.22L1501.1 504.22H1497.58V480.57H1488.78V537H1497.58V512.58H1500.99L1523.43 537H1535.09ZM1566.94 538.1C1578.49 538.1 1589.05 532.38 1593.45 521.38L1585.2 519.95C1582.67 525.67 1575.96 529.96 1567.49 529.96C1555.39 529.96 1547.14 521.49 1547.14 508.73C1547.14 496.08 1555.39 487.5 1567.49 487.5C1575.52 487.5 1581.9 491.46 1584.65 496.85L1593.01 495.42C1588.5 484.97 1578.27 479.47 1566.94 479.47C1549.89 479.47 1537.9 491.68 1537.9 508.73C1537.9 525.89 1549.89 538.1 1566.94 538.1ZM1612.2 537V488.6H1640.91V537H1649.71V480.57H1603.4V537H1612.2ZM1718.85 508.62C1718.85 491.68 1706.97 479.47 1690.25 479.47C1673.64 479.47 1661.76 491.68 1661.76 508.73C1661.76 525.89 1673.75 538.1 1690.8 538.1C1701.91 538.1 1712.14 532.82 1716.87 522.48L1708.62 521.16C1705.76 526.22 1699.38 529.96 1691.24 529.96C1679.91 529.96 1671.99 522.59 1671 511.37H1718.74C1718.85 510.05 1718.85 509.61 1718.85 508.62ZM1690.25 487.39C1700.26 487.39 1707.52 493.99 1709.28 503.78H1671.33C1673.2 493.88 1680.46 487.39 1690.25 487.39ZM1738.63 559.55V527.65C1742.7 532.93 1749.63 538.1 1760.08 538.1C1776.14 538.1 1787.69 525.89 1787.69 508.73C1787.69 491.68 1776.14 479.47 1760.08 479.47C1749.41 479.47 1742.37 484.86 1738.41 490.14L1735.77 480.57H1729.83V559.55H1738.63ZM1758.54 530.07C1746.77 530.07 1738.63 521.38 1738.63 508.73C1738.63 496.19 1746.77 487.5 1758.54 487.5C1770.42 487.5 1778.45 496.19 1778.45 508.73C1778.45 521.38 1770.42 530.07 1758.54 530.07ZM1820.49 537V488.6H1840.07V480.57H1792.11V488.6H1811.69V537H1820.49ZM1869.12 479.47C1859.22 479.47 1850.64 484.64 1847.45 493.22L1855.7 494.54C1858.23 489.92 1863.07 487.06 1868.79 487.06C1876.6 487.06 1881.66 492.45 1882.21 502.79H1869.01C1852.84 502.79 1844.48 509.94 1844.48 520.39C1844.48 530.84 1852.51 538.1 1863.95 538.1C1873.74 538.1 1879.35 533.04 1882.65 528.09L1885.07 537H1891.01V505.43C1891.01 488.6 1882.43 479.47 1869.12 479.47ZM1865.6 530.51C1858.23 530.51 1853.39 526.55 1853.39 520.17C1853.39 514.23 1857.68 510.38 1869.12 510.38H1882.21V511.81C1882.21 524.35 1874.95 530.51 1865.6 530.51Z" fill="white"/>
</g>
<defs>
<clipPath id="clip0">
<rect width="1990" height="853" fill="white"/>
</clipPath>
</defs>
</svg>
