<svg width="224" height="28" viewBox="0 0 224 28" fill="none" xmlns="http://www.w3.org/2000/svg">
<path fill-rule="evenodd" clip-rule="evenodd" d="M14.7544 0C21.1307 0 24.3188 8.82149e-06 26.3207 1.97907C28.3225 3.88481 28.3225 7.10992 28.3225 13.4135V13.4136V14.5864V14.5865C28.3225 20.8901 28.3225 24.0419 26.3207 26.0209C24.393 28 21.1307 28 14.7544 28H13.5681C7.19184 28 4.00369 28 2.00184 26.0209C0 24.1152 0 20.8901 0 14.5865V14.5864V13.4136V13.4135C0 7.10992 0 3.95811 2.00184 1.97907C3.92955 8.82149e-06 7.19184 0 13.5681 0H14.7544ZM20.9082 19.8639H22.9842C23.5774 19.8639 23.874 19.5707 23.5774 18.9843C23.355 18.398 22.6877 17.5184 21.798 16.5655C21.5374 16.222 21.175 15.8785 20.8748 15.5939C20.6626 15.3927 20.4814 15.221 20.3893 15.0995C20.0927 14.733 20.1668 14.5864 20.3893 14.22C20.3893 14.22 22.9101 10.7016 23.2067 9.52884C23.355 9.08905 23.2067 8.79585 22.6135 8.79585H20.5375C20.0185 8.79585 19.7961 9.08906 19.6478 9.38225C19.6478 9.38225 18.6098 11.9477 17.127 13.5602L17.1268 13.5604C16.6079 14.0734 16.4597 14.22 16.1631 14.22C16.089 14.22 15.8665 14.0733 15.8665 13.6336V9.60214C15.8665 9.08905 15.7182 8.86916 15.2734 8.86916H12.0111C11.7145 8.86916 11.4921 9.08906 11.4921 9.30895C11.4921 9.50675 11.6023 9.6392 11.742 9.80707C11.9646 10.0746 12.2621 10.4322 12.3077 11.288V14.2932C12.3077 14.9529 12.2335 15.0995 11.937 15.0995C11.2697 15.0995 9.56441 12.6074 8.52641 9.67544C8.37813 9.08906 8.15569 8.86916 7.63669 8.86916H5.5607C4.96756 8.86916 4.81928 9.16236 4.81928 9.45556C4.81928 9.96865 5.48656 12.6807 8.08155 16.199C9.78683 18.6178 12.1594 19.9372 14.3837 19.9372C15.7183 19.9372 15.8665 19.644 15.8665 19.1309V17.2985C15.8665 16.7121 15.9407 16.5655 16.3855 16.5655C16.6821 16.5655 17.2011 16.7121 18.4615 17.8849C18.8571 18.2759 19.1591 18.6033 19.4069 18.8721C20.0419 19.5606 20.3217 19.8639 20.9082 19.8639Z" fill="#2787F5"/>
<path d="M50.7749 14.0502C50.7749 10.3002 47.9749 7.4502 44.0249 7.4502C40.0749 7.4502 37.2749 10.2752 37.2749 14.2002C37.2749 18.1252 40.0749 20.9502 44.0249 20.9502C46.7249 20.9502 49.2749 19.6752 50.2499 17.2002L47.5499 16.7502C46.9249 17.6752 45.7249 18.3252 44.1999 18.3252C41.9999 18.3252 40.5499 16.9752 40.2749 14.9752H50.7249C50.7499 14.7002 50.7749 14.4002 50.7749 14.0502ZM44.0249 9.9502C45.8249 9.9502 47.1749 11.1002 47.6499 12.7252H40.4499C40.9249 11.0502 42.2749 9.9502 44.0249 9.9502Z" fill="#2787F5"/>
<path d="M54.471 20.7002L57.446 15.7752H57.921L60.696 20.7002H64.046L59.921 13.8752L63.571 7.7002H60.396L57.846 12.0752H57.371L54.946 7.7002H51.696L55.346 14.0502L51.221 20.7002H54.471Z" fill="#2787F5"/>
<path d="M68.6099 25.8252V18.7252C69.5099 19.8002 71.1349 20.9502 73.4099 20.9502C77.1349 20.9502 79.7599 18.1252 79.7599 14.2002C79.7599 10.2752 77.1349 7.4502 73.4099 7.4502C71.0349 7.4502 69.3849 8.7002 68.4849 9.8002L67.8849 7.7002H65.7349V25.8252H68.6099ZM72.7099 18.3752C70.2849 18.3752 68.6099 16.6502 68.6099 14.2002C68.6099 11.7502 70.2849 10.0252 72.7099 10.0252C75.1099 10.0252 76.7599 11.7502 76.7599 14.2002C76.7599 16.6502 75.1099 18.3752 72.7099 18.3752Z" fill="#2787F5"/>
<path d="M95.0132 14.0502C95.0132 10.3002 92.2132 7.4502 88.2632 7.4502C84.3132 7.4502 81.5132 10.2752 81.5132 14.2002C81.5132 18.1252 84.3132 20.9502 88.2632 20.9502C90.9632 20.9502 93.5132 19.6752 94.4882 17.2002L91.7882 16.7502C91.1632 17.6752 89.9632 18.3252 88.4382 18.3252C86.2382 18.3252 84.7882 16.9752 84.5132 14.9752H94.9632C94.9882 14.7002 95.0132 14.4002 95.0132 14.0502ZM88.2632 9.9502C90.0632 9.9502 91.4132 11.1002 91.8882 12.7252H84.6882C85.1632 11.0502 86.5132 9.9502 88.2632 9.9502Z" fill="#2787F5"/>
<path d="M100.128 20.7002V13.0252C100.128 11.3752 100.928 10.4502 102.678 10.4502H104.328L104.078 7.7002H103.528C102.003 7.7002 100.828 8.1252 99.9534 9.5752L99.4034 7.7002H97.2534V20.7002H100.128Z" fill="#2787F5"/>
<path d="M111.777 18.2002C110.802 18.2002 110.327 17.7252 110.327 16.7502V10.2002H114.202V7.7002H110.327V3.9502H108.177L107.452 7.7002H105.327V10.2002H107.452V16.7502C107.452 19.3002 108.927 20.7002 111.777 20.7002H114.202L114.452 18.2002H111.777Z" fill="#2787F5"/>
<path d="M119.3 9.0002L119.55 3.0752H116.95L117.2 9.0002H119.3Z" fill="#2787F5"/>
<path d="M126.733 20.9502C130.458 20.9502 132.158 19.1002 132.158 17.0002C132.158 14.4252 129.758 13.6502 127.708 13.0752C126.183 12.6502 124.858 12.2502 124.858 11.2002C124.858 10.3502 125.808 9.9002 126.883 9.9002C128.083 9.9002 128.983 10.5252 129.458 11.6002L132.133 11.1502C131.408 8.8752 129.433 7.4502 126.858 7.4502C124.208 7.4502 121.883 8.6752 121.883 11.2752C121.883 14.0002 124.383 14.7252 126.458 15.3002C127.933 15.7002 129.208 16.0752 129.208 17.0752C129.208 18.1002 128.108 18.5002 126.958 18.5002C125.483 18.5002 124.383 17.8002 123.958 16.5752L121.183 17.0502C121.733 19.4502 123.783 20.9502 126.733 20.9502Z" fill="#2787F5"/>
<path d="M143.659 20.7002V13.0752C143.659 11.3002 144.734 10.0252 146.234 10.0252C147.734 10.0252 148.759 11.3002 148.759 13.0752V20.7002H151.634V13.0752C151.634 11.3002 152.709 10.0252 154.209 10.0252C155.709 10.0252 156.734 11.3002 156.734 13.0752V20.7002H159.609V12.8002C159.609 9.6752 157.684 7.4502 154.959 7.4502C152.934 7.4502 151.559 8.6252 150.984 9.8002C150.334 8.3502 148.884 7.4502 147.134 7.4502C145.259 7.4502 144.084 8.4752 143.459 9.5502L142.934 7.7002H140.784V20.7002H143.659Z" fill="#2787F5"/>
<path d="M168.032 7.4502C165.507 7.4502 163.282 8.7502 162.632 11.0002L165.282 11.4502C165.682 10.6502 166.582 9.9002 167.882 9.9002C169.457 9.9002 170.382 11.0252 170.507 12.7252H167.707C163.882 12.7252 161.982 14.4002 161.982 16.8002C161.982 19.2252 163.857 20.9502 166.507 20.9502C168.632 20.9502 170.057 19.7252 170.682 18.6502L171.282 20.7002H173.407V13.4002C173.407 9.6252 171.357 7.4502 168.032 7.4502ZM167.182 18.5252C165.782 18.5252 164.882 17.8002 164.882 16.6752C164.882 15.6752 165.607 14.9752 167.807 14.9752H170.532C170.532 17.1002 169.182 18.5252 167.182 18.5252Z" fill="#2787F5"/>
<path d="M179.401 20.7002V13.1752C179.401 11.3252 180.651 10.0252 182.376 10.0252C184.051 10.0252 185.226 11.3252 185.226 13.1752V20.7002H188.101V12.8502C188.101 9.7252 185.976 7.4502 183.151 7.4502C181.551 7.4502 180.076 8.2752 179.251 9.6502L178.676 7.7002H176.526V20.7002H179.401Z" fill="#2787F5"/>
<path d="M195.973 20.9502C197.548 20.9502 198.998 20.1252 199.823 18.7502L200.398 20.7002H202.548V7.7002H199.673V15.2252C199.673 17.0752 198.448 18.3752 196.773 18.3752C195.123 18.3752 193.973 17.0752 193.973 15.2252V7.7002H191.098V15.5502C191.098 18.6752 193.198 20.9502 195.973 20.9502Z" fill="#2787F5"/>
<path d="M211.098 7.4502C208.573 7.4502 206.348 8.7502 205.698 11.0002L208.348 11.4502C208.748 10.6502 209.648 9.9002 210.948 9.9002C212.523 9.9002 213.448 11.0252 213.573 12.7252H210.773C206.948 12.7252 205.048 14.4002 205.048 16.8002C205.048 19.2252 206.923 20.9502 209.573 20.9502C211.698 20.9502 213.123 19.7252 213.748 18.6502L214.348 20.7002H216.473V13.4002C216.473 9.6252 214.423 7.4502 211.098 7.4502ZM210.248 18.5252C208.848 18.5252 207.948 17.8002 207.948 16.6752C207.948 15.6752 208.673 14.9752 210.873 14.9752H213.598C213.598 17.1002 212.248 18.5252 210.248 18.5252Z" fill="#2787F5"/>
<path d="M222.592 20.7002V3.0752H219.717V20.7002H222.592Z" fill="#2787F5"/>
</svg>
