<svg width="78" height="78" viewBox="0 0 78 78" fill="none" xmlns="http://www.w3.org/2000/svg">
<path d="M47.97 9.75C64.35 9.75 68.25 13.65 68.25 30.03V47.97C68.25 64.35 64.35 68.25 47.97 68.25H30.03C13.65 68.25 9.75 64.35 9.75 47.97V30.03C9.75 13.65 13.65 9.75 30.03 9.75H47.97V9.75Z" fill="#2787F5"/>
<path d="M37.7313 21.1181C37.8677 21.0141 38.0413 20.9763 38.2069 21.0146C38.5213 21.0874 38.7188 21.4085 38.6481 21.7319C38.5655 22.1096 38.4619 22.3971 38.3377 22.5944C33.933 29.59 35.8675 33.7951 38.8376 34.247C41.9096 34.7143 44.1568 32.5973 43.676 28.0278C43.5932 27.241 43.524 26.5779 43.4683 26.0385C43.4552 25.9113 43.4855 25.7833 43.5539 25.6765C43.717 25.422 44.0498 25.3517 44.2972 25.5194C45.2956 26.1962 46.4904 27.4268 47.8815 29.2114C52.8322 35.5626 53.0259 40.8786 52.998 43.165C52.8981 51.3625 46.9984 57 38.999 57C30.9996 57 25 51.3635 25 43.165C25.0354 36.958 28.0836 28.221 36.4989 22.0445C36.8132 21.8139 37.224 21.505 37.7313 21.1181Z" fill="white"/>
</svg>
