<svg width="154" height="128" viewBox="0 0 154 128" fill="none" xmlns="http://www.w3.org/2000/svg">
<path d="M131.618 21.8718L122.046 15.5898L109.183 29.0513C112.623 33.9871 110.977 39.6708 110.977 39.6708L105.443 61.5082C105.443 61.5082 104.097 65.9954 100.657 68.6877L99.9092 104.884H114.866V94.2644C120.131 92.4695 123.143 87.0351 123.99 84.5422C127.929 69.5851 135.956 37.876 137.152 33.688C138.349 29.5 135.956 25.0128 131.618 21.8718Z" fill="#0177FF"/>
<path d="M45.1063 22.4915C46.7281 16.31 52.3149 12 58.7057 12H112.669C121.922 12 128.653 20.7846 126.244 29.7191L114.631 72.8005C113.3 77.7383 109.393 81.564 104.428 82.7905L47.0553 96.9637C36.6981 99.5224 27.3764 90.0655 30.084 79.7462L45.1063 22.4915Z" fill="#7DB9FF"/>
<path d="M64.3117 24.4142C64.8601 24.0652 66.6151 23.3672 69.2475 23.3672H100.807C100.807 23.3672 105.743 24.115 109.183 29.0509C112.623 33.9868 110.978 39.6705 110.978 39.6705L105.444 61.5079C105.444 61.5079 104.098 65.995 100.657 68.6873C97.2174 71.3796 92.1319 71.23 92.1319 71.23H54.8887L64.3117 24.4142Z" fill="#0177FF"/>
<circle cx="71.7911" cy="52.8331" r="27.9698" fill="#FF952B"/>
<circle cx="69.3976" cy="51.9357" r="27.9698" fill="#FFDA65"/>
<circle cx="69.5471" cy="52.0851" r="21.5383" fill="#FF952B"/>
<path d="M71.6935 59.5788L67.2539 64.0184C66.7913 64.4811 66.0412 64.4811 65.5785 64.0184C65.3564 63.7961 65.2315 63.495 65.2315 63.1807V59.5788H71.6935ZM76.1676 43.4238C77.6078 43.4238 78.1301 43.5738 78.6566 43.8554C79.1832 44.137 79.5963 44.5502 79.8781 45.0767C80.1596 45.6033 80.3095 46.1255 80.3095 47.5658V55.4369C80.3095 56.8771 80.1596 57.3994 79.8781 57.9258C79.5963 58.4525 79.1832 58.8656 78.6566 59.1474C78.1301 59.4289 77.6078 59.5788 76.1676 59.5788H62.9115C61.4712 59.5788 60.949 59.4289 60.4224 59.1474C59.8959 58.8656 59.4827 58.4525 59.2011 57.9258C58.9195 57.3994 58.7695 56.8771 58.7695 55.4369V47.5658C58.7695 46.1255 58.9195 45.6033 59.2011 45.0767C59.4827 44.5502 59.8959 44.137 60.4224 43.8554C60.949 43.5738 61.4712 43.4238 62.9115 43.4238H76.1676Z" fill="white"/>
<path d="M53.3927 69.7344C41.1278 69.7344 32.9014 78.4095 30.0596 82.7471H102.602C97.0974 73.2942 86.7471 69.7344 79.2685 69.7344H53.3927Z" fill="#FF5694"/>
<rect x="32.4531" y="82.2983" width="82.8625" height="34.7005" rx="13.1623" fill="#0177FF"/>
<rect x="16" y="82.2983" width="82.8625" height="34.7005" rx="13.1623" fill="#7DB9FF"/>
</svg>
