<svg width="1990" height="853" viewBox="0 0 1990 853" fill="none" xmlns="http://www.w3.org/2000/svg">
<g clip-path="url(#clip0)">
<rect width="1990" height="853" fill="#5798FE"/>
<path d="M-112 715.015C115.708 240.104 460.512 -104.304 1074.94 -345M1266.78 -311.294C1469.14 -29.6892 1752.44 666.616 1266.78 1199M698.59 1199C800.562 941.595 1224 418.055 2102 383.139" stroke="#FF1263" stroke-width="242"/>
<path d="M168.83 475L137.11 440.68L166.23 408.31H153.62L128.66 436.26H124.5V408.31H114.1V475H124.5V446.14H128.53L155.05 475H168.83Z" fill="white"/>
<path d="M206.932 463.3H205.242L182.622 408.31H171.442L201.082 478.9L199.002 484.88C197.052 490.21 194.712 492.16 189.382 492.16H178.332L179.242 501.65H188.862C199.132 501.65 204.852 497.23 208.622 486.96L236.962 408.31H226.042L206.932 463.3Z" fill="white"/>
<path d="M259.705 501.65V463.95C264.515 470.19 272.705 476.3 285.055 476.3C304.035 476.3 317.685 461.87 317.685 441.59C317.685 421.44 304.035 407.01 285.055 407.01C272.445 407.01 264.125 413.38 259.445 419.62L256.325 408.31H249.305V501.65H259.705ZM283.235 466.81C269.325 466.81 259.705 456.54 259.705 441.59C259.705 426.77 269.325 416.5 283.235 416.5C297.275 416.5 306.765 426.77 306.765 441.59C306.765 456.54 297.275 466.81 283.235 466.81Z" fill="white"/>
<path d="M357.171 407.01C345.471 407.01 335.331 413.12 331.561 423.26L341.311 424.82C344.301 419.36 350.021 415.98 356.781 415.98C366.011 415.98 371.991 422.35 372.641 434.57H357.041C337.931 434.57 328.051 443.02 328.051 455.37C328.051 467.72 337.541 476.3 351.061 476.3C362.631 476.3 369.261 470.32 373.161 464.47L376.021 475H383.041V437.69C383.041 417.8 372.901 407.01 357.171 407.01ZM353.011 467.33C344.301 467.33 338.581 462.65 338.581 455.11C338.581 448.09 343.651 443.54 357.171 443.54H372.641V445.23C372.641 460.05 364.061 467.33 353.011 467.33Z" fill="white"/>
<path d="M425.134 475V417.8H448.274V408.31H391.594V417.8H414.734V475H425.134Z" fill="white"/>
<path d="M488.191 476.3C508.601 476.3 523.031 461.87 523.031 441.59C523.031 421.44 508.601 407.01 488.191 407.01C467.911 407.01 453.481 421.44 453.481 441.59C453.481 461.87 467.911 476.3 488.191 476.3ZM488.191 466.68C474.021 466.68 464.401 456.54 464.401 441.59C464.401 426.77 474.021 416.5 488.191 416.5C502.491 416.5 512.111 426.77 512.111 441.59C512.111 456.54 502.491 466.68 488.191 466.68Z" fill="white"/>
<path d="M547.761 501.65V463.95C552.571 470.19 560.761 476.3 573.111 476.3C592.091 476.3 605.741 461.87 605.741 441.59C605.741 421.44 592.091 407.01 573.111 407.01C560.501 407.01 552.181 413.38 547.501 419.62L544.381 408.31H537.361V501.65H547.761ZM571.291 466.81C557.381 466.81 547.761 456.54 547.761 441.59C547.761 426.77 557.381 416.5 571.291 416.5C585.331 416.5 594.821 426.77 594.821 441.59C594.821 456.54 585.331 466.81 571.291 466.81Z" fill="white"/>
<path d="M642.238 475C657.448 475 668.368 465.38 668.368 451.73C668.368 438.08 657.578 428.46 642.238 428.46H630.408V408.31H620.008V475H642.238ZM687.348 475V408.31H676.948V475H687.348ZM630.408 437.82H642.238C651.468 437.82 657.968 443.54 657.968 451.73C657.968 459.92 651.468 465.64 642.238 465.64H630.408V437.82Z" fill="white"/>
<path d="M759.909 475V417.8H783.049V408.31H726.369V417.8H749.509V475H759.909Z" fill="white"/>
<path d="M855.726 441.46C855.726 421.44 841.686 407.01 821.926 407.01C802.296 407.01 788.256 421.44 788.256 441.59C788.256 461.87 802.426 476.3 822.576 476.3C835.706 476.3 847.796 470.06 853.386 457.84L843.636 456.28C840.256 462.26 832.716 466.68 823.096 466.68C809.706 466.68 800.346 457.97 799.176 444.71H855.596C855.726 443.15 855.726 442.63 855.726 441.46ZM821.926 416.37C833.756 416.37 842.336 424.17 844.416 435.74H799.566C801.776 424.04 810.356 416.37 821.926 416.37Z" fill="white"/>
<path d="M878.849 475V419.36H880.669L899.259 475H910.439L929.939 419.36H931.629V475H941.769V408.31H924.479L905.889 461.87H904.199L886.389 408.31H868.709V475H878.849Z" fill="white"/>
<path d="M985.208 407.01C973.508 407.01 963.368 413.12 959.598 423.26L969.348 424.82C972.338 419.36 978.058 415.98 984.818 415.98C994.048 415.98 1000.03 422.35 1000.68 434.57H985.078C965.968 434.57 956.088 443.02 956.088 455.37C956.088 467.72 965.578 476.3 979.098 476.3C990.668 476.3 997.298 470.32 1001.2 464.47L1004.06 475H1011.08V437.69C1011.08 417.8 1000.94 407.01 985.208 407.01ZM981.048 467.33C972.338 467.33 966.618 462.65 966.618 455.11C966.618 448.09 971.688 443.54 985.208 443.54H1000.68V445.23C1000.68 460.05 992.098 467.33 981.048 467.33Z" fill="white"/>
<path d="M1053.17 475V417.8H1076.31V408.31H1019.63V417.8H1042.77V475H1053.17Z" fill="white"/>
<path d="M1104.08 475L1133.59 419.36H1135.28V475H1145.42V408.31H1129.3L1099.92 463.95H1098.1V408.31H1087.96V475H1104.08Z" fill="white"/>
<path d="M1209.77 475V408.31H1199.37V440.03C1194.69 442.11 1188.71 443.15 1183.77 443.15C1173.89 443.15 1168.82 438.08 1168.82 427.94V408.31H1158.42V427.94C1158.42 443.67 1167.39 452.64 1182.73 452.64C1188.32 452.64 1194.69 451.47 1199.37 449.65V475H1209.77Z" fill="white"/>
<path d="M1291.56 441.46C1291.56 421.44 1277.52 407.01 1257.76 407.01C1238.13 407.01 1224.09 421.44 1224.09 441.59C1224.09 461.87 1238.26 476.3 1258.41 476.3C1271.54 476.3 1283.63 470.06 1289.22 457.84L1279.47 456.28C1276.09 462.26 1268.55 466.68 1258.93 466.68C1245.54 466.68 1236.18 457.97 1235.01 444.71H1291.43C1291.56 443.15 1291.56 442.63 1291.56 441.46ZM1257.76 416.37C1269.59 416.37 1278.17 424.17 1280.25 435.74H1235.4C1237.61 424.04 1246.19 416.37 1257.76 416.37Z" fill="white"/>
<path d="M1334.96 476.3C1348.61 476.3 1361.09 469.54 1366.29 456.54L1356.54 454.85C1353.55 461.61 1345.62 466.68 1335.61 466.68C1321.31 466.68 1311.56 456.67 1311.56 441.59C1311.56 426.64 1321.31 416.5 1335.61 416.5C1345.1 416.5 1352.64 421.18 1355.89 427.55L1365.77 425.86C1360.44 413.51 1348.35 407.01 1334.96 407.01C1314.81 407.01 1300.64 421.44 1300.64 441.59C1300.64 461.87 1314.81 476.3 1334.96 476.3Z" fill="white"/>
<path d="M1432.77 475L1401.05 440.68L1430.17 408.31H1417.56L1392.6 436.26H1388.44V408.31H1378.04V475H1388.44V446.14H1392.47L1418.99 475H1432.77Z" fill="white"/>
<path d="M1458.66 475L1488.17 419.36H1489.86V475H1500V408.31H1483.88L1454.5 463.95H1452.68V408.31H1442.54V475H1458.66Z" fill="white"/>
<path d="M1521.97 475L1540.04 447.18H1541.99L1558.89 475H1571.24L1549.01 439.9L1568.9 408.31H1557.2L1541.73 433.27H1539.78L1524.83 408.31H1512.87L1532.63 440.81L1510.14 475H1521.97Z" fill="white"/>
<path d="M1615.74 453.16C1615.09 462.39 1612.75 465.38 1605.08 465.38C1604.43 465.38 1602.48 465.38 1600.79 465.25L1601.7 475.26C1603.52 475.52 1605.21 475.65 1606.77 475.65C1618.21 475.65 1625.1 467.85 1626.01 452.9L1628.22 417.8H1653.05V475H1663.45V408.31H1618.6L1615.74 453.16Z" fill="white"/>
<path d="M1745.16 441.46C1745.16 421.44 1731.12 407.01 1711.36 407.01C1691.73 407.01 1677.69 421.44 1677.69 441.59C1677.69 461.87 1691.86 476.3 1712.01 476.3C1725.14 476.3 1737.23 470.06 1742.82 457.84L1733.07 456.28C1729.69 462.26 1722.15 466.68 1712.53 466.68C1699.14 466.68 1689.78 457.97 1688.61 444.71H1745.03C1745.16 443.15 1745.16 442.63 1745.16 441.46ZM1711.36 416.37C1723.19 416.37 1731.77 424.17 1733.85 435.74H1689C1691.21 424.04 1699.79 416.37 1711.36 416.37Z" fill="white"/>
<path d="M1803.12 436.52H1768.54V408.31H1758.14V475H1768.54V446.01H1803.12V475H1813.52V408.31H1803.12V436.52Z" fill="white"/>
<path d="M1858.82 475V417.8H1881.96V408.31H1825.28V417.8H1848.42V475H1858.82Z" fill="white"/>
</g>
<defs>
<clipPath id="clip0">
<rect width="1990" height="853" fill="white"/>
</clipPath>
</defs>
</svg>
