<svg width="1990" height="853" viewBox="0 0 1990 853" fill="none" xmlns="http://www.w3.org/2000/svg">
<g clip-path="url(#clip0)">
<rect width="1990" height="853" fill="#F7F7F7"/>
<circle cx="1629.5" cy="852.5" r="774.5" fill="#FFE6EA"/>
<path d="M1527.44 517.787C1527.44 517.787 1540.05 588.183 1638.65 590.404C1737.25 592.626 1759 517 1759 517L1765.5 519L1759.3 934.376C1686.94 945.537 1613.79 950.781 1540.57 950.06C1446.57 949.354 1517.5 513.5 1517.5 513.5L1523.75 512.43L1527.44 517.787Z" fill="#73B4FF"/>
<path d="M1514.23 238.798C1514.23 238.798 1452.69 208.894 1454.65 162.705C1454.92 149.906 1459.11 137.497 1466.64 127.143C1474.17 116.788 1484.69 108.985 1496.79 104.779C1496.79 104.779 1492.99 50.6436 1535.26 32.2414C1582.65 11.5649 1627.61 46.8273 1627.61 46.8273C1627.61 46.8273 1663.86 2.20672 1721.19 19.7726C1778.52 37.3384 1780.48 108.648 1780.48 108.648C1780.48 108.648 1828.22 107.602 1844.67 140.46C1870.01 191.171 1774.81 300.356 1774.81 300.356" fill="#37324A"/>
<path d="M1736.36 348.742C1747.27 336.744 1759.14 316.484 1760.06 315.23L1724.88 323.908L1710.31 354.781C1710.31 354.781 1720.28 361.681 1736.46 348.742" fill="#342B48"/>
<path d="M1298.98 215.848L1313.55 220.056L1306.28 229.806L1301.34 240.053L1296.86 254.378L1294.88 271.185L1293.78 277.59L1280.21 272.911L1298.98 215.848Z" fill="#37324A"/>
<path d="M1295.32 277.353L1270.76 351.46C1269.55 355.103 1266.94 358.12 1263.52 359.855C1260.09 361.587 1256.11 361.897 1252.45 360.713L1150.06 326.733C1146.39 325.509 1143.36 322.882 1141.62 319.428C1139.89 315.973 1139.59 311.973 1140.8 308.303L1165.86 232.419" fill="#37324A"/>
<path d="M1184.38 176.794L1208.49 103.891C1209.7 100.243 1212.3 97.2212 1215.73 95.4872C1219.16 93.7529 1223.14 93.4473 1226.8 94.6371L1329.19 128.619C1332.83 129.844 1335.84 132.449 1337.57 135.872C1339.3 139.296 1339.62 143.263 1338.45 146.917L1313.84 222.33" fill="#37324A"/>
<path d="M1572.95 413.882C1572.95 413.882 1594.45 417.985 1604.18 416.286C1613.91 414.588 1643.41 415.346 1676.91 391.741C1710.42 368.137 1710 355.277 1710 355.277L1720.12 355.801L1713.63 419.059L1711.02 473.795C1711.02 473.795 1710.13 493.241 1712.25 496.51C1716.5 503.164 1722.99 508.083 1730.55 510.39C1741.38 513.735 1759.74 518.806 1759.74 518.806C1759.74 518.806 1749.28 548.135 1731.5 560.84C1713.71 573.545 1683.11 602.795 1600.85 585.567C1545.93 574.12 1528.75 536.32 1523.31 512.377C1523.31 512.377 1558.2 510.755 1562.04 504.823C1564.14 501.721 1565.84 498.367 1567.09 494.836L1569.57 453.012L1572.95 413.882Z" fill="white"/>
<path d="M1195.04 182.074L1212.15 130.945C1212.76 129.094 1213.73 127.38 1215 125.904C1216.27 124.427 1217.82 123.216 1219.57 122.339C1221.31 121.463 1223.21 120.938 1225.15 120.796C1227.1 120.653 1229.05 120.895 1230.9 121.509L1307.72 146.943C1309.57 147.554 1311.28 148.525 1312.75 149.798C1314.23 151.071 1315.44 152.622 1316.31 154.363C1317.18 156.104 1317.71 158 1317.85 159.942C1317.99 161.885 1317.75 163.836 1317.13 165.685L1264.17 325.503C1262.93 329.235 1260.26 332.321 1256.74 334.083C1253.22 335.849 1249.15 336.147 1245.42 334.914L1168.6 309.481C1166.75 308.869 1165.04 307.898 1163.56 306.626C1162.09 305.35 1160.88 303.801 1160.01 302.06C1159.13 300.319 1158.61 298.423 1158.47 296.481C1158.33 294.536 1158.57 292.585 1159.19 290.737L1176.84 237.465" fill="#E5F1FF"/>
<path d="M1252.01 669.319L1210.79 706.647L1208.83 705.628L1223.73 599.057L1249.89 411.556L1276.22 378.385L1297.36 349.631L1313.47 325.138L1322.26 308.644L1325.16 298.736L1334.68 242.065L1337.29 222.225C1336.97 220.047 1335.83 218.073 1334.11 216.7C1332.39 215.327 1330.21 214.658 1328.01 214.828C1319.59 215.115 1308 231.322 1308 231.322L1304.03 238.693L1299.69 251.423L1297.07 266.244L1298.35 278.138L1275.36 337.842L1269.84 353.524C1268.95 355.648 1267.46 357.465 1265.55 358.753C1263.56 360.092 1261.27 360.953 1258.89 361.27C1256.51 361.587 1254.08 361.352 1251.8 360.582L1142.73 329.661C1142.73 329.661 1135.07 324.979 1135.57 319.047C1136.06 313.112 1161.72 234.145 1161.72 234.145L1192.01 239.66C1192.01 239.66 1202.08 243.817 1206.73 241.412C1211.39 239.007 1229.07 229.623 1204.8 212.501C1204.8 212.501 1226.85 210.671 1210.81 191.223C1194.78 171.775 1146.5 174.363 1146.5 174.363C1146.5 174.363 1133.42 175.017 1130.21 181.735C1126.99 188.453 1129.24 200.398 1129.24 200.398C1129.24 200.398 1121.39 202.803 1118.78 206.411C1116.16 210.018 1112.39 216.318 1118.12 232.237L1106.67 240.732C1103.63 245.065 1101.96 250.21 1101.88 255.501C1102.02 259.469 1102.7 263.4 1103.89 267.186L1099.08 273.145C1097.21 277.876 1096.32 282.936 1096.47 288.019C1097.12 294.868 1104.31 322.289 1104.31 322.289L1121.37 356.269L1141.01 385.65L1158.64 409.176L1128.27 508.508L1103.55 601.565L1084.28 708.738L1075.94 778.742L1075.02 846.313L1080.64 878.071C1083.97 884.354 1088.61 889.851 1094.25 894.194C1099.88 898.535 1106.38 901.621 1113.31 903.243C1136.48 908.314 1179.74 895.403 1179.74 895.403C1179.74 895.403 1260.17 868.216 1286.5 850.443L1252.01 669.319Z" fill="white"/>
<path d="M1667.31 170.546C1630.7 227.766 1719.62 266.531 1719.62 266.531C1719.62 266.531 1777.29 230.798 1777.74 285.17C1778.05 325.713 1723.23 322.73 1723.23 322.73C1718.26 343.029 1708.1 361.687 1693.74 376.882C1679.39 392.076 1661.33 403.286 1641.34 409.41C1641.34 409.41 1592.17 424.182 1558.17 407.557C1518.94 388.448 1515.96 347.433 1513.71 332.638C1511.46 317.845 1513.24 271.576 1513.24 271.576L1516.32 184.557C1516.32 184.557 1565.63 184.792 1581.32 148.223C1581.32 148.223 1611.21 214.696 1667.31 170.546Z" fill="white"/>
<path d="M1597.77 418.142C1583.71 418.499 1569.74 415.713 1556.89 409.985C1519.33 391.689 1514 354.701 1511.43 336.795C1511.23 335.383 1511.04 334.181 1510.89 333.006C1508.48 318.079 1510.28 273.301 1510.36 271.419L1513.71 184.452C1513.71 183.759 1513.99 183.094 1514.48 182.604C1514.97 182.114 1515.63 181.838 1516.32 181.838C1517.08 181.838 1564.14 181.498 1578.89 147.099C1579.09 146.63 1579.42 146.23 1579.84 145.946C1580.26 145.663 1580.76 145.51 1581.27 145.504C1581.77 145.505 1582.26 145.651 1582.68 145.925C1583.11 146.198 1583.44 146.588 1583.65 147.046C1583.78 147.334 1596.93 175.957 1621.2 181.891C1635.01 185.263 1649.97 180.714 1665.67 168.376C1666.15 167.988 1666.76 167.787 1667.38 167.807C1668.01 167.827 1668.6 168.068 1669.06 168.487C1669.52 168.906 1669.82 169.475 1669.89 170.092C1669.97 170.709 1669.83 171.333 1669.49 171.853C1661.3 184.661 1659.02 197.522 1662.95 210.095C1672.05 239.921 1712.06 259.97 1719.54 263.499C1725.48 260.048 1751.06 246.325 1767.33 255.291C1775.91 259.996 1780.4 270.008 1780.4 285.039C1780.62 289.888 1779.79 294.724 1777.98 299.232C1776.18 303.737 1773.44 307.809 1769.94 311.179C1755.98 324.483 1732.54 325.372 1725.25 325.293C1719.81 345.57 1709.32 364.143 1694.77 379.277C1680.21 394.41 1662.06 405.614 1642 411.842C1627.59 415.869 1612.73 417.987 1597.77 418.142ZM1518.94 187.092L1515.65 271.759C1515.65 272.203 1513.81 317.896 1516.11 332.299C1516.3 333.45 1516.48 334.756 1516.69 336.168C1519.12 353.079 1524.2 388.238 1559.27 405.283C1591.96 421.174 1640.35 407.057 1640.8 406.902C1660.3 400.814 1677.91 389.814 1691.94 374.961C1705.96 360.104 1715.93 341.893 1720.88 322.079C1721.03 321.503 1721.37 320.995 1721.84 320.639C1722.32 320.283 1722.9 320.1 1723.49 320.118C1723.78 320.118 1751.82 321.452 1766.44 307.493C1769.4 304.607 1771.73 301.125 1773.25 297.275C1774.76 293.428 1775.45 289.3 1775.26 285.17C1775.26 272.099 1771.64 263.708 1764.79 259.97C1749.34 251.449 1721.32 268.596 1721.06 268.753C1720.7 268.979 1720.29 269.113 1719.87 269.145C1719.44 269.177 1719.02 269.105 1718.63 268.936C1716.59 268.047 1668.6 246.769 1657.93 211.742C1654.6 200.922 1655.29 189.265 1659.86 178.911C1646.05 187.432 1632.66 190.177 1619.92 187.066C1599.29 181.995 1586.42 163.044 1581.34 154.052C1565.5 182.962 1528.91 186.648 1518.94 187.092Z" fill="#37324A"/>
<path d="M1529.06 283.184C1526.03 283.205 1523.1 282.106 1520.82 280.099C1511.8 272.257 1516.25 262.115 1519.91 257.671C1520.69 256.626 1525.58 250.744 1537.98 250.091C1538.51 249.919 1539.08 249.919 1539.6 250.091C1541.6 250.076 1543.6 250.173 1545.59 250.378C1557.49 251.659 1570.33 267.787 1570.88 268.467C1571.31 269.012 1571.5 269.703 1571.42 270.389C1571.33 271.074 1570.98 271.699 1570.44 272.127C1569.9 272.554 1569.21 272.75 1568.52 272.671C1567.84 272.593 1567.21 272.247 1566.78 271.708C1563.46 267.526 1553.1 256.443 1545.02 255.58H1544.13C1545.79 258.346 1546.8 261.459 1547.06 264.677C1547.06 267.285 1546.54 269.867 1545.54 272.276C1544.54 274.685 1543.07 276.873 1541.22 278.714C1537.72 281.4 1533.48 282.959 1529.06 283.184ZM1537.77 255.345C1527.67 255.972 1524.28 260.573 1524.12 260.782C1523.23 261.854 1516.95 269.905 1524.12 276.126C1529.61 280.831 1537.51 274.767 1537.69 274.636C1540.21 271.984 1541.65 268.489 1541.72 264.833C1541.32 261.362 1539.96 258.072 1537.77 255.345Z" fill="#37324A"/>
<path d="M1639.04 288.908C1636 288.938 1633.05 287.84 1630.77 285.825C1629.32 284.665 1628.11 283.222 1627.24 281.582C1626.36 279.94 1625.83 278.137 1625.67 276.283C1625.69 271.491 1627.4 266.859 1630.51 263.213C1630.77 262.873 1639.09 252.417 1655.86 256.207C1667.29 258.821 1680.21 273.512 1680.76 274.139C1680.99 274.397 1681.18 274.699 1681.3 275.028C1681.41 275.358 1681.46 275.708 1681.45 276.057C1681.43 276.407 1681.34 276.749 1681.18 277.063C1681.03 277.377 1680.81 277.657 1680.55 277.887C1680.28 278.116 1679.97 278.29 1679.64 278.399C1679.31 278.507 1678.96 278.547 1678.61 278.517C1678.26 278.486 1677.92 278.387 1677.61 278.223C1677.3 278.059 1677.03 277.835 1676.81 277.564C1676.81 277.564 1664.46 263.527 1654.68 261.305L1653.58 261.07C1655.38 263.94 1656.53 267.17 1656.96 270.532C1657.09 273.149 1656.63 275.762 1655.62 278.178C1654.6 280.594 1653.06 282.75 1651.1 284.492C1647.6 287.124 1643.41 288.661 1639.04 288.908ZM1646.89 260.625C1642.17 260.872 1637.75 262.944 1634.54 266.402C1632.28 269.047 1631 272.387 1630.91 275.865C1631.01 277.029 1631.36 278.158 1631.92 279.18C1632.49 280.203 1633.27 281.094 1634.2 281.798C1639.67 286.531 1647.43 280.57 1647.77 280.308C1649.07 279.122 1650.09 277.674 1650.78 276.06C1651.46 274.446 1651.79 272.703 1651.75 270.95C1651.17 267.092 1649.45 263.495 1646.81 260.625H1646.89Z" fill="#37324A"/>
<path d="M1565.39 231.088L1527.15 229.441C1526.48 229.407 1525.85 229.117 1525.39 228.631C1524.93 228.144 1524.67 227.498 1524.67 226.827C1524.67 226.134 1524.95 225.469 1525.44 224.979C1525.93 224.488 1526.59 224.213 1527.28 224.213L1565.5 225.86C1566.19 225.86 1566.85 226.135 1567.34 226.625C1567.83 227.116 1568.11 227.78 1568.11 228.474C1568.11 229.167 1567.83 229.832 1567.34 230.322C1566.85 230.812 1566.19 231.088 1565.5 231.088H1565.39Z" fill="#1E0E00"/>
<path d="M1674.53 241.412H1674.27L1633.65 237.334C1632.97 237.261 1632.34 236.921 1631.9 236.388C1631.47 235.854 1631.26 235.17 1631.33 234.484C1631.39 233.795 1631.73 233.16 1632.26 232.718C1632.8 232.277 1633.49 232.066 1634.18 232.132L1674.79 236.21C1675.49 236.244 1676.14 236.553 1676.61 237.068C1677.07 237.583 1677.31 238.261 1677.28 238.954C1677.24 239.648 1676.94 240.299 1676.42 240.764C1675.91 241.23 1675.23 241.472 1674.53 241.438V241.412Z" fill="#37324A"/>
<path d="M1586.21 313.453C1585.86 313.447 1585.51 313.377 1585.19 313.243L1570.18 306.839L1569.86 306.684C1568.81 306.054 1567.89 305.22 1567.17 304.228C1566.44 303.233 1565.93 302.103 1565.65 300.907C1565.39 299.723 1565.37 298.503 1565.61 297.312C1565.84 296.125 1566.32 294.999 1567.01 294.007L1579.41 275.995C1579.8 275.423 1580.41 275.03 1581.09 274.903C1581.77 274.776 1582.47 274.924 1583.04 275.316C1583.62 275.707 1584.01 276.31 1584.14 276.992C1584.27 277.673 1584.12 278.377 1583.73 278.949L1571.25 296.88C1570.96 297.285 1570.77 297.748 1570.67 298.235C1570.58 298.719 1570.59 299.221 1570.7 299.705C1570.92 300.661 1571.5 301.495 1572.32 302.03L1587.15 308.355C1587.71 308.593 1588.16 309.013 1588.44 309.545C1588.72 310.078 1588.81 310.693 1588.69 311.28C1588.57 311.871 1588.25 312.403 1587.78 312.784C1587.32 313.164 1586.74 313.374 1586.13 313.374L1586.21 313.453Z" fill="#37324A"/>
<path d="M1216.91 204.372L1278.63 224.578C1279.5 224.849 1280.3 225.288 1281 225.869C1281.7 226.451 1282.27 227.164 1282.69 227.967C1283.11 228.771 1283.37 229.649 1283.45 230.552C1283.53 231.455 1283.43 232.365 1283.16 233.23L1280.54 241.072C1280.25 241.932 1279.78 242.724 1279.18 243.404C1278.57 244.084 1277.84 244.638 1277.02 245.034C1276.2 245.43 1275.31 245.66 1274.4 245.711C1273.5 245.763 1272.59 245.634 1271.73 245.333L1216.99 227.192L1207.7 214.619L1211.47 211.508L1216.91 204.372Z" fill="#B392FB"/>
<path d="M1598.48 341.656C1587.52 341.552 1576.95 337.58 1568.64 330.442C1568.14 329.962 1567.85 329.301 1567.83 328.607C1567.82 327.913 1568.09 327.243 1568.57 326.744C1569.05 326.245 1569.71 325.956 1570.4 325.944C1571.1 325.932 1571.77 326.196 1572.27 326.677C1573.16 327.542 1593.53 346.544 1622.2 329.292C1622.49 329.076 1622.83 328.927 1623.19 328.851C1623.55 328.774 1623.92 328.771 1624.28 328.848C1624.64 328.924 1624.97 329.073 1625.27 329.286C1625.56 329.502 1625.81 329.776 1626 330.092C1626.18 330.409 1626.3 330.759 1626.34 331.124C1626.38 331.486 1626.34 331.855 1626.23 332.202C1626.12 332.552 1625.93 332.871 1625.69 333.145C1625.45 333.419 1625.15 333.638 1624.81 333.788C1616.93 338.782 1607.81 341.503 1598.48 341.656Z" fill="#37324A"/>
<path d="M1761.86 278.112C1761.44 278.111 1761.02 278.009 1760.65 277.813C1760.28 277.617 1759.96 277.334 1759.72 276.988C1758.56 275.123 1757 273.531 1755.17 272.317C1753.34 271.104 1751.27 270.299 1749.1 269.956C1738.43 268.336 1726.61 277.458 1726.47 277.563C1726.2 277.774 1725.89 277.93 1725.56 278.021C1725.23 278.112 1724.88 278.137 1724.54 278.095C1724.2 278.052 1723.87 277.943 1723.57 277.773C1723.27 277.603 1723.01 277.377 1722.8 277.105C1722.59 276.834 1722.43 276.524 1722.34 276.193C1722.25 275.861 1722.23 275.515 1722.27 275.175C1722.31 274.833 1722.42 274.504 1722.59 274.205C1722.76 273.906 1722.99 273.644 1723.26 273.433C1723.81 273.015 1737.01 262.977 1749.91 264.807C1752.78 265.251 1755.52 266.301 1757.95 267.888C1760.38 269.475 1762.45 271.561 1764.01 274.008C1764.28 274.4 1764.44 274.858 1764.47 275.334C1764.5 275.81 1764.4 276.285 1764.18 276.708C1763.95 277.131 1763.62 277.485 1763.21 277.733C1762.81 277.98 1762.34 278.111 1761.86 278.112Z" fill="#37324A"/>
<path d="M1210.14 708.162C1209.66 708.168 1209.19 708.041 1208.78 707.797C1208.34 707.529 1207.99 707.14 1207.77 706.674C1207.55 706.211 1207.47 705.691 1207.55 705.183L1248.32 410.745C1248.39 410.252 1248.6 409.79 1248.92 409.412C1249.6 408.603 1317.87 327.962 1323.23 300.854C1327.41 279.68 1333.4 240.052 1335.78 224.003C1335.95 222.868 1335.82 221.708 1335.41 220.64C1334.99 219.571 1334.3 218.631 1333.4 217.912C1332.57 217.202 1331.56 216.726 1330.48 216.533C1329.4 216.34 1328.29 216.437 1327.26 216.814C1319.04 219.742 1299.72 231.557 1297.94 277.458C1297.94 278.151 1297.66 278.817 1297.17 279.307C1296.68 279.797 1296.02 280.072 1295.32 280.072C1294.63 280.072 1293.96 279.797 1293.47 279.307C1292.98 278.817 1292.71 278.151 1292.71 277.458C1294.61 228.368 1316.24 215.402 1325.5 212.109C1327.39 211.438 1329.41 211.268 1331.38 211.617C1333.34 211.965 1335.19 212.82 1336.72 214.095C1338.31 215.388 1339.54 217.074 1340.28 218.986C1341.02 220.898 1341.24 222.97 1340.94 224.996C1337.98 244.993 1332.41 281.563 1328.36 302.108C1322.91 329.581 1260.14 404.472 1253.39 412.444L1213.59 699.981C1220.23 694.91 1233.23 684.586 1250.75 668.928C1251.28 668.508 1251.94 668.304 1252.61 668.362C1253.28 668.417 1253.9 668.725 1254.34 669.227C1254.79 669.726 1255.03 670.377 1255.01 671.047C1254.98 671.714 1254.71 672.35 1254.23 672.821C1228.08 696.219 1211.81 707.825 1211.65 707.955C1211.18 708.175 1210.65 708.248 1210.14 708.162Z" fill="#37324A"/>
<path d="M1531.29 516.273C1530.59 516.346 1529.9 516.139 1529.35 515.701C1528.81 515.262 1528.47 514.626 1528.4 513.932C1528.32 513.238 1528.53 512.544 1528.96 512.003C1529.41 511.461 1530.04 511.117 1530.73 511.044L1533.35 510.496C1547.27 507.385 1561.65 504.144 1562.83 499.204C1567.82 478.29 1569.42 413.123 1569.45 412.472C1569.45 411.778 1569.72 411.114 1570.21 410.621C1570.7 410.131 1571.37 409.857 1572.06 409.857C1572.75 409.857 1573.42 410.131 1573.91 410.621C1574.4 411.114 1574.67 411.778 1574.67 412.472C1574.67 415.087 1573.03 478.917 1567.93 500.275C1565.96 508.405 1552.76 511.357 1534.5 515.46L1531.89 516.011C1531.7 516.13 1531.5 516.218 1531.29 516.273Z" fill="black"/>
<path d="M1144.51 902.354C1141.74 902.354 1139 902.354 1136.25 902.092C1101.88 899.87 1080.62 885.232 1074.73 859.747C1064.27 814.499 1069.95 668.925 1157.02 410.404C1148.02 399.191 1082.42 315.646 1096.86 273.902C1097.71 271.099 1099.19 268.523 1101.17 266.365C1103.15 264.207 1105.59 262.521 1108.32 261.434C1124.82 254.873 1150.56 268.152 1151.65 268.727C1152.27 269.049 1152.73 269.602 1152.94 270.264C1153.14 270.925 1153.08 271.642 1152.75 272.256C1152.43 272.869 1151.88 273.329 1151.22 273.535C1150.55 273.741 1149.84 273.676 1149.22 273.353C1148.99 273.353 1124.53 260.623 1110.25 266.296C1108.21 267.095 1106.38 268.349 1104.9 269.961C1103.42 271.574 1102.32 273.503 1101.7 275.601C1087.5 316.718 1161.18 407.294 1161.86 408.21C1162.13 408.551 1162.32 408.959 1162.4 409.394C1162.47 409.826 1162.44 410.274 1162.3 410.69C1075.28 668.953 1069.5 813.793 1079.83 858.569C1086.56 887.637 1114.38 895.453 1136.59 896.866C1153.6 897.891 1170.65 895.602 1186.78 890.121C1212.39 881.598 1259.28 859.354 1285.36 844.717C1285.66 844.544 1285.98 844.434 1286.33 844.388C1286.67 844.346 1287.02 844.367 1287.35 844.458C1287.68 844.547 1287.99 844.702 1288.27 844.912C1288.54 845.122 1288.77 845.384 1288.94 845.682C1289.11 845.983 1289.22 846.312 1289.27 846.653C1289.31 846.994 1289.29 847.341 1289.2 847.676C1289.11 848.007 1288.95 848.318 1288.74 848.592C1288.53 848.866 1288.27 849.094 1287.97 849.264C1261.69 864.033 1214.37 886.462 1188.59 895.061C1174.39 899.87 1159.5 902.332 1144.51 902.354Z" fill="#37324A"/>
<path d="M1202.73 185.367C1202.75 184.735 1202.87 184.11 1203.07 183.511L1205.69 175.669C1206.25 173.955 1207.48 172.536 1209.09 171.723C1210.7 170.909 1212.57 170.768 1214.29 171.33L1290.27 196.477C1291.98 197.049 1293.39 198.275 1294.2 199.887C1295.01 201.498 1295.15 203.364 1294.58 205.076L1291.97 212.918C1291.4 214.632 1290.18 216.051 1288.56 216.865C1286.95 217.678 1285.08 217.819 1283.36 217.257L1213.74 194.124" fill="#B392FB"/>
<path d="M1104.58 269.017C1104.03 269.02 1103.5 268.854 1103.05 268.54C1102.61 268.225 1102.27 267.78 1102.09 267.266C1101.91 266.717 1097.44 253.699 1103.45 242.564C1106.98 236.003 1113.36 231.559 1122.36 229.363C1137.87 225.547 1154.38 228.736 1165.46 231.977L1166.22 232.16L1198.81 239.715C1200.61 240.152 1202.48 240.225 1204.31 239.929C1206.14 239.633 1207.89 238.973 1209.46 237.989C1210.99 237.092 1212.26 235.793 1213.11 234.231C1213.96 232.67 1214.37 230.905 1214.29 229.128C1214.09 219.064 1200.25 214.647 1200.09 214.594C1199.45 214.374 1198.92 213.912 1198.61 213.306C1198.3 212.701 1198.24 211.999 1198.44 211.35C1198.64 210.701 1199.09 210.156 1199.69 209.829C1200.28 209.503 1200.98 209.421 1201.64 209.602C1202.37 209.811 1219.24 215.196 1219.53 229.023C1219.62 231.683 1219 234.32 1217.74 236.663C1216.47 239.005 1214.61 240.97 1212.33 242.355C1210.18 243.733 1207.76 244.66 1205.23 245.083C1202.71 245.505 1200.12 245.413 1197.63 244.812L1165.05 237.414L1163.95 237.127C1153.49 233.964 1138 230.958 1123.62 234.513C1116.11 236.343 1110.85 239.924 1107.92 245.152C1102.98 254.248 1106.85 265.488 1106.9 265.619C1107.03 265.938 1107.1 266.28 1107.09 266.623C1107.09 266.967 1107.01 267.306 1106.88 267.622C1106.74 267.937 1106.54 268.223 1106.3 268.463C1106.05 268.702 1105.76 268.89 1105.44 269.017C1105.15 269.065 1104.86 269.065 1104.58 269.017Z" fill="#37324A"/>
<path d="M1117.86 236.235C1117.35 236.233 1116.84 236.077 1116.42 235.789C1115.99 235.501 1115.65 235.092 1115.46 234.614C1115.2 234.013 1109.26 219.479 1114.78 208.893C1115.91 206.756 1117.46 204.866 1119.33 203.335C1121.2 201.805 1123.36 200.664 1125.68 199.979C1124.64 195.745 1123.46 187.301 1127.78 180.479C1131.23 175.016 1137.35 171.853 1146.08 171.042C1155.59 170.466 1165.14 171.223 1174.44 173.29C1180.83 174.569 1187.11 176.397 1193.19 178.754C1199.99 181.397 1206.59 184.525 1212.94 188.112C1215.12 189.773 1216.9 191.92 1218.11 194.383C1219.33 196.846 1219.96 199.559 1219.94 202.306C1219.9 204.683 1219.21 207.004 1217.94 209.017C1216.67 211.03 1214.88 212.659 1212.75 213.729C1204.91 218.12 1178.75 210.67 1173.76 209.128C1154.01 203.9 1138.68 202.332 1129.5 204.371C1127.4 204.668 1125.39 205.448 1123.64 206.65C1121.89 207.851 1120.44 209.442 1119.41 211.298C1115.01 219.767 1120.22 232.471 1120.27 232.602C1120.44 232.999 1120.51 233.432 1120.47 233.861C1120.43 234.291 1120.28 234.704 1120.04 235.064C1119.8 235.424 1119.48 235.719 1119.1 235.923C1118.72 236.128 1118.3 236.235 1117.86 236.235ZM1138.6 198.28C1151 198.708 1163.3 200.657 1175.22 204.083C1187.15 207.664 1205.87 211.507 1210.32 209.154C1211.64 208.52 1212.77 207.532 1213.56 206.301C1214.36 205.069 1214.81 203.642 1214.84 202.175C1214.82 200.336 1214.4 198.523 1213.61 196.859C1212.83 195.196 1211.7 193.72 1210.29 192.529C1204.2 189.129 1197.87 186.159 1191.36 183.642C1185.55 181.394 1179.55 179.646 1173.44 178.414C1164.63 176.453 1155.59 175.723 1146.58 176.244C1139.68 176.898 1134.89 179.25 1132.33 183.25C1129.03 188.478 1130.08 195.379 1130.92 198.933C1133.46 198.535 1136.03 198.316 1138.6 198.28Z" fill="#37324A"/>
<path d="M1139.52 306.893C1139.29 306.933 1139.06 306.933 1138.84 306.893L1122.67 302.58C1122.03 302.379 1121.48 301.938 1121.15 301.344C1120.82 300.751 1120.74 300.054 1120.92 299.4C1121.09 298.745 1121.52 298.185 1122.1 297.838C1122.68 297.488 1123.37 297.378 1124.04 297.534L1140.17 301.847C1140.87 301.935 1141.5 302.291 1141.93 302.842C1142.36 303.396 1142.55 304.093 1142.46 304.787C1142.37 305.481 1142.02 306.111 1141.46 306.54C1140.91 306.969 1140.21 307.161 1139.52 307.076V306.893Z" fill="#37324A"/>
<path d="M1551.77 945.015C1498.28 655.491 1515.75 544.814 1521.95 518.781C1522.14 518.087 1522.15 517.353 1521.97 516.656C1521.8 515.956 1521.45 515.314 1520.96 514.79C1520.46 514.267 1519.84 513.877 1519.16 513.661C1518.47 513.442 1517.74 513.405 1517.03 513.552C1359.4 544.762 1264.41 652.487 1252.45 666.704C1252.05 667.188 1251.76 667.757 1251.6 668.366C1251.44 668.978 1251.42 669.614 1251.54 670.235L1285.41 844.9C1285.53 845.549 1285.81 846.157 1286.21 846.681C1286.62 847.204 1287.13 847.624 1287.73 847.914C1288.32 848.2 1288.98 848.343 1289.64 848.334C1290.3 848.324 1290.95 848.16 1291.53 847.853L1388.46 797.196C1389.09 796.873 1389.78 796.712 1390.49 796.727C1391.2 796.742 1391.89 796.931 1392.5 797.278C1393.12 797.625 1393.64 798.118 1394.01 798.714C1394.39 799.314 1394.61 799.993 1394.66 800.699L1403.13 936.624C1403.18 937.589 1403.57 938.508 1404.21 939.226C1404.86 939.941 1405.73 940.419 1406.69 940.571C1419.45 942.532 1468.1 949.197 1546.62 950.059H1547.71C1548.33 950.044 1548.93 949.894 1549.49 949.624C1550.04 949.35 1550.53 948.96 1550.91 948.479C1551.3 947.998 1551.57 947.438 1551.72 946.842C1551.87 946.242 1551.88 945.621 1551.77 945.015Z" fill="#73B4FF"/>
<path d="M2025.89 850.81C2025.89 850.81 1967.8 672.665 1914.08 595.527C1874.85 539.328 1765.42 518.989 1765.42 518.989C1765.42 518.989 1749.99 883.691 1736.02 937.697C1736.02 937.697 1920.51 915.557 2025.89 850.81Z" fill="#73B4FF"/>
<path d="M1522.5 259.631L1528.85 255.998L1538.32 253.515L1541.96 259.213L1543.21 266.558L1540.41 274.034L1534.55 278.217L1525.64 279.942L1520.04 273.355L1518.92 263.761L1522.5 259.631Z" fill="#37324A"/>
<path d="M1283.55 129.559C1283.28 129.597 1283.01 129.597 1282.74 129.559L1256.82 121.038C1256.48 120.941 1256.17 120.778 1255.89 120.557C1255.62 120.336 1255.39 120.062 1255.23 119.752C1255.06 119.441 1254.96 119.1 1254.93 118.75C1254.9 118.4 1254.94 118.048 1255.05 117.713C1255.16 117.379 1255.34 117.07 1255.57 116.805C1255.8 116.541 1256.08 116.325 1256.4 116.172C1256.71 116.019 1257.06 115.931 1257.41 115.913C1257.76 115.896 1258.11 115.95 1258.44 116.071L1284.34 124.462C1284.92 124.655 1285.42 125.051 1285.75 125.578C1286.07 126.106 1286.2 126.731 1286.1 127.343C1286.01 127.955 1285.7 128.514 1285.23 128.919C1284.76 129.325 1284.17 129.552 1283.55 129.559Z" fill="#1E0E00"/>
<path d="M1641.86 637.584C1598.77 637.572 1555.72 634.955 1512.95 629.744C1409.74 617.118 1343.13 593.462 1342.47 593.149C1341.82 592.911 1341.29 592.427 1341 591.8C1340.7 591.17 1340.67 590.452 1340.9 589.8C1341.02 589.478 1341.19 589.177 1341.43 588.921C1341.66 588.665 1341.93 588.458 1342.24 588.309C1342.56 588.16 1342.89 588.075 1343.24 588.056C1343.58 588.041 1343.93 588.09 1344.25 588.206C1344.91 588.443 1411.08 611.941 1513.73 624.49C1608.44 636.069 1754.35 640.409 1912.25 595.474C1912.91 595.288 1913.62 595.374 1914.23 595.711C1914.83 596.049 1915.27 596.612 1915.46 597.276C1915.65 597.94 1915.57 598.649 1915.24 599.251C1914.9 599.851 1914.35 600.298 1913.68 600.493C1825.23 625.361 1733.75 637.843 1641.86 637.584Z" fill="white"/>
<path d="M1637.81 769.017C1585.76 768.99 1533.76 765.733 1482.12 759.268C1350.98 742.878 1262.55 711.378 1261.66 711.064C1261.33 710.955 1261.02 710.781 1260.76 710.55C1260.49 710.322 1260.28 710.042 1260.13 709.725C1259.97 709.412 1259.89 709.071 1259.87 708.721C1259.85 708.371 1259.9 708.024 1260.02 707.695C1260.14 707.366 1260.32 707.065 1260.56 706.806C1260.8 706.551 1261.09 706.344 1261.4 706.201C1261.72 706.057 1262.07 705.978 1262.42 705.969C1262.77 705.963 1263.11 706.024 1263.44 706.152C1264.3 706.465 1352.36 737.807 1482.93 754.118C1603.39 769.148 1785.82 774.116 1970.71 712.294C1971.03 712.188 1971.38 712.142 1971.72 712.169C1972.06 712.194 1972.4 712.285 1972.7 712.44C1973.01 712.592 1973.29 712.805 1973.51 713.067C1973.73 713.326 1973.91 713.627 1974.01 713.953C1974.12 714.282 1974.17 714.626 1974.14 714.967C1974.11 715.31 1974.02 715.645 1973.87 715.953C1973.72 716.257 1973.5 716.531 1973.24 716.756C1972.98 716.981 1972.68 717.152 1972.35 717.261C1854.79 756.602 1738.24 769.017 1637.81 769.017Z" fill="white"/>
<path d="M1977.22 540.739C1989.14 540.739 1998.8 531.085 1998.8 519.174C1998.8 507.264 1989.14 497.609 1977.22 497.609C1965.3 497.609 1955.64 507.264 1955.64 519.174C1955.64 531.085 1965.3 540.739 1977.22 540.739Z" fill="#FE8AFF"/>
<path d="M1758.39 520.401C1758.2 520.425 1758.02 520.425 1757.83 520.401C1753.89 519.563 1719.05 511.878 1711.99 499.307C1704.93 486.734 1716.51 369.574 1717.84 356.218C1717.91 355.524 1718.26 354.887 1718.8 354.446C1719.34 354.005 1720.03 353.795 1720.72 353.865C1721.42 353.935 1722.05 354.276 1722.49 354.814C1722.94 355.353 1723.15 356.047 1723.08 356.738C1718.13 406.561 1712.01 488.615 1716.59 496.744C1721.58 505.657 1748.87 513.159 1758.96 515.302C1759.65 515.375 1760.29 515.722 1760.73 516.264C1761.17 516.806 1761.37 517.5 1761.3 518.191C1761.23 518.885 1760.88 519.521 1760.34 519.959C1759.8 520.397 1759.1 520.604 1758.41 520.531L1758.39 520.401Z" fill="#37324A"/>
<path d="M1634.49 263.735L1642.08 259.945L1647.65 259.213L1651.99 265.774L1652.83 273.799L1648.56 282.163L1641.6 284.385L1633.91 283.758L1630.31 278.661L1629.86 268.963L1634.49 263.735Z" fill="#37324A"/>
<path d="M1927.76 289.194C1923.42 289.194 1919.18 287.909 1915.57 285.498C1911.96 283.088 1909.14 279.664 1907.48 275.656C1905.82 271.649 1905.39 267.239 1906.24 262.985C1907.08 258.73 1909.17 254.823 1912.24 251.756C1915.31 248.688 1919.22 246.6 1923.48 245.753C1927.73 244.907 1932.15 245.342 1936.15 247.002C1940.17 248.661 1943.59 251.472 1946 255.079C1948.42 258.686 1949.7 262.926 1949.7 267.263C1949.7 273.08 1947.39 278.658 1943.27 282.771C1939.16 286.883 1933.58 289.194 1927.76 289.194ZM1927.76 250.56C1924.45 250.56 1921.22 251.54 1918.47 253.375C1915.73 255.21 1913.58 257.819 1912.32 260.871C1911.05 263.923 1910.72 267.282 1911.37 270.522C1912.01 273.762 1913.6 276.738 1915.94 279.075C1918.28 281.411 1921.26 283.003 1924.5 283.645C1927.74 284.29 1931.1 283.958 1934.15 282.695C1937.21 281.432 1939.82 279.29 1941.65 276.543C1943.49 273.796 1944.47 270.567 1944.47 267.263C1944.46 262.836 1942.7 258.591 1939.57 255.46C1936.43 252.329 1932.19 250.567 1927.76 250.56Z" fill="#37324A"/>
<path d="M1890.33 905.938C1889.67 905.938 1889.03 905.688 1888.54 905.238C1888.06 904.784 1887.76 904.166 1887.72 903.506L1880.18 791.809C1880.16 791.469 1880.2 791.122 1880.31 790.796C1880.42 790.47 1880.6 790.169 1880.82 789.907C1881.28 789.384 1881.92 789.061 1882.61 789.012C1883.31 788.964 1883.99 789.195 1884.52 789.648C1885.04 790.105 1885.36 790.75 1885.41 791.444L1892.79 903.272C1892.83 903.959 1892.6 904.638 1892.15 905.159C1891.69 905.676 1891.05 905.996 1890.36 906.041L1890.33 905.938Z" fill="#37324A"/>
<path d="M1182.44 94.9528C1171.58 104.763 1165.06 118.48 1164.31 133.091C1164.28 133.654 1164.14 134.206 1163.9 134.714C1163.65 135.222 1163.3 135.675 1162.88 136.048C1162.46 136.42 1161.96 136.705 1161.43 136.883C1160.89 137.062 1160.33 137.133 1159.76 137.09C1158.72 136.909 1157.74 136.428 1156.96 135.705C1152.11 130.335 1146.23 125.985 1139.68 122.911C1133.12 119.836 1126.02 118.099 1118.78 117.799C1118.22 117.776 1117.66 117.64 1117.15 117.398C1116.64 117.156 1116.19 116.813 1115.81 116.391C1115.44 115.968 1115.16 115.475 1114.98 114.94C1114.8 114.404 1114.73 113.839 1114.78 113.277C1114.9 112.246 1115.31 111.269 1115.95 110.454C1121.35 105.601 1125.71 99.7211 1128.8 93.1582C1131.88 86.5955 1133.63 79.4826 1133.92 72.2376C1133.95 71.6751 1134.09 71.1242 1134.34 70.6177C1134.59 70.1115 1134.93 69.6595 1135.36 69.2891C1135.78 68.9183 1136.28 68.6368 1136.81 68.4609C1137.35 68.2846 1137.91 68.218 1138.47 68.2642C1139.5 68.3711 1140.48 68.7805 1141.27 69.4404C1146.13 74.8147 1152 79.17 1158.56 82.253C1165.12 85.336 1172.22 87.085 1179.46 87.3985C1180.02 87.4283 1180.57 87.5701 1181.08 87.8164C1181.59 88.0623 1182.04 88.4072 1182.42 88.8309C1182.79 89.2546 1183.07 89.7486 1183.25 90.2836C1183.43 90.8187 1183.5 91.3843 1183.46 91.9468C1183.5 93.0395 1183.13 94.1081 1182.44 94.9528Z" fill="#FFDB65"/>
<path d="M118.013 376V256.855H158.573C166.685 256.855 173.952 258.545 180.374 261.925C186.909 265.192 191.979 269.868 195.584 275.952C199.302 281.923 201.161 288.74 201.161 296.401C201.161 304.062 199.302 310.879 195.584 316.85C191.979 322.821 186.909 327.497 180.374 330.877C173.952 334.144 166.685 335.778 158.573 335.778H135.42V376H118.013ZM158.573 319.892C165.896 319.892 171.811 317.751 176.318 313.47C180.937 309.076 183.247 303.386 183.247 296.401C183.247 289.416 180.937 283.782 176.318 279.501C171.811 275.107 165.896 272.91 158.573 272.91H135.42V319.892H158.573ZM247.695 286.937C258.511 286.937 267.018 290.486 273.214 297.584C279.524 304.569 282.678 314.371 282.678 326.99V376H270.848L266.961 362.311C264.145 366.705 260.37 370.367 255.638 373.296C250.906 376.225 245.217 377.69 238.569 377.69C232.711 377.69 227.472 376.507 222.852 374.141C218.233 371.775 214.628 368.508 212.036 364.339C209.445 360.058 208.149 355.269 208.149 349.974C208.149 341.749 211.417 335.158 217.951 330.201C224.486 325.244 233.95 322.765 246.343 322.765H266.116C265.666 315.892 263.75 310.597 260.37 306.879C256.99 303.048 252.484 301.133 246.85 301.133C242.569 301.133 238.795 302.147 235.527 304.175C232.26 306.203 229.781 308.851 228.091 312.118L212.712 309.583C214.966 302.598 219.303 297.077 225.725 293.021C232.147 288.965 239.471 286.937 247.695 286.937ZM242.118 363.663C249.216 363.663 254.962 361.353 259.356 356.734C263.863 352.002 266.116 345.524 266.116 337.299V336.285H246.85C232.204 336.285 224.88 340.679 224.88 349.467C224.88 353.748 226.458 357.185 229.612 359.776C232.767 362.367 236.936 363.663 242.118 363.663ZM351.836 331.384C356.456 332.736 360.286 335.215 363.328 338.82C366.37 342.313 367.891 346.65 367.891 351.833C367.891 356.678 366.483 361.072 363.666 365.015C360.85 368.846 356.794 371.944 351.498 374.31C346.316 376.563 340.288 377.69 333.415 377.69C324.177 377.69 316.234 375.549 309.586 371.268C302.939 366.874 298.545 361.015 296.404 353.692L311.783 351.157C315.501 359.269 322.656 363.325 333.246 363.325C339.105 363.325 343.555 362.255 346.597 360.114C349.752 357.861 351.329 354.762 351.329 350.819C351.329 347.326 349.865 344.51 346.935 342.369C344.119 340.228 339.556 339.158 333.246 339.158H321.754V324.624H333.246C338.654 324.624 342.767 323.61 345.583 321.582C348.513 319.554 349.977 316.85 349.977 313.47C349.977 309.865 348.4 306.935 345.245 304.682C342.203 302.429 338.429 301.302 333.922 301.302C329.528 301.302 325.585 302.372 322.092 304.513C318.6 306.654 315.952 309.583 314.149 313.301L298.77 310.597C301.362 303.048 305.812 297.246 312.121 293.19C318.543 289.021 325.979 286.937 334.429 286.937C340.513 286.937 345.978 288.007 350.822 290.148C355.78 292.289 359.61 295.274 362.314 299.105C365.131 302.936 366.539 307.217 366.539 311.949C366.539 316.794 365.187 320.906 362.483 324.286C359.779 327.666 356.23 330.032 351.836 331.384ZM374.281 401.857V360.79H376.14C380.985 360.79 384.647 358.649 387.125 354.368C389.717 350.087 391.407 343.383 392.195 334.257L396.42 288.627H458.274V360.79H472.977V401.857H456.415V376H390.843V401.857H374.281ZM441.712 360.79V303.837H411.799L408.926 334.257C408.25 341.468 407.236 347.157 405.884 351.326C404.645 355.495 402.899 358.649 400.645 360.79H441.712ZM569.759 331.722C569.759 333.975 569.702 335.722 569.59 336.961H497.427C498.328 344.735 501.37 350.932 506.553 355.551C511.735 360.17 518.326 362.48 526.326 362.48C531.846 362.48 536.747 361.41 541.029 359.269C545.423 357.016 548.746 354.086 551 350.481L566.548 353.016C563.168 360.903 557.703 366.987 550.155 371.268C542.719 375.549 534.438 377.69 525.312 377.69C516.636 377.69 508.862 375.775 501.99 371.944C495.117 368.001 489.765 362.593 485.935 355.72C482.104 348.847 480.189 341.073 480.189 332.398C480.189 323.61 482.104 315.78 485.935 308.907C489.765 302.034 495.061 296.683 501.821 292.852C508.581 288.909 516.298 286.937 524.974 286.937C533.536 286.937 541.198 288.909 547.958 292.852C554.83 296.683 560.182 302.034 564.013 308.907C567.843 315.667 569.759 323.272 569.759 331.722ZM524.974 301.64C518.326 301.64 512.58 303.612 507.736 307.555C503.004 311.498 499.849 316.794 498.272 323.441H551.676C550.211 316.906 547.056 311.667 542.212 307.724C537.48 303.668 531.734 301.64 524.974 301.64ZM595.003 288.627H656.35V376H639.788V303.837H610.382L607.847 345.073C607.284 355.326 604.636 363.212 599.904 368.733C595.172 374.141 588.75 376.845 580.638 376.845C578.497 376.845 576.131 376.676 573.54 376.338L571.85 360.452C573.315 360.565 575.512 360.621 578.441 360.621C582.948 360.621 586.159 359.494 588.074 357.241C589.989 354.988 591.116 351.044 591.454 345.411L595.003 288.627ZM233.271 574H212.146L182.233 537.834H177.332V574H161.277V537.834H156.376L126.463 574H105.338L143.194 528.877L108.718 486.627H127.984L156.207 521.948H161.277V486.627H177.332V521.948H182.402L210.625 486.627H229.891L195.415 528.877L233.271 574ZM275.587 484.937C286.403 484.937 294.909 488.486 301.106 495.584C307.415 502.569 310.57 512.371 310.57 524.99V574H298.74L294.853 560.311C292.036 564.705 288.262 568.367 283.53 571.296C278.798 574.225 273.108 575.69 266.461 575.69C260.602 575.69 255.363 574.507 250.744 572.141C246.125 569.775 242.519 566.508 239.928 562.339C237.337 558.058 236.041 553.269 236.041 547.974C236.041 539.749 239.308 533.158 245.843 528.201C252.378 523.244 261.842 520.765 274.235 520.765H294.008C293.557 513.892 291.642 508.597 288.262 504.879C284.882 501.048 280.375 499.133 274.742 499.133C270.461 499.133 266.686 500.147 263.419 502.175C260.152 504.203 257.673 506.851 255.983 510.118L240.604 507.583C242.857 500.598 247.195 495.077 253.617 491.021C260.039 486.965 267.362 484.937 275.587 484.937ZM270.01 561.663C277.108 561.663 282.854 559.353 287.248 554.734C291.755 550.002 294.008 543.524 294.008 535.299V534.285H274.742C260.095 534.285 252.772 538.679 252.772 547.467C252.772 551.748 254.349 555.185 257.504 557.776C260.659 560.367 264.827 561.663 270.01 561.663ZM343.263 486.627H404.61V574H388.048V501.837H358.642L356.107 543.073C355.544 553.326 352.896 561.212 348.164 566.733C343.432 572.141 337.01 574.845 328.898 574.845C326.758 574.845 324.392 574.676 321.8 574.338L320.11 558.452C321.575 558.565 323.772 558.621 326.701 558.621C331.208 558.621 334.419 557.494 336.334 555.241C338.25 552.988 339.376 549.044 339.714 543.411L343.263 486.627ZM468.049 575.69C459.148 575.69 451.205 573.775 444.22 569.944C437.234 566.113 431.77 560.762 427.827 553.889C423.883 547.016 421.912 539.186 421.912 530.398C421.912 521.61 423.883 513.78 427.827 506.907C431.77 500.034 437.234 494.683 444.22 490.852C451.205 486.909 459.148 484.937 468.049 484.937C476.949 484.937 484.892 486.909 491.878 490.852C498.863 494.683 504.327 500.034 508.271 506.907C512.214 513.78 514.186 521.61 514.186 530.398C514.186 539.186 512.214 547.016 508.271 553.889C504.327 560.762 498.863 566.113 491.878 569.944C484.892 573.775 476.949 575.69 468.049 575.69ZM468.049 560.48C476.611 560.48 483.54 557.72 488.836 552.199C494.244 546.678 496.948 539.411 496.948 530.398C496.948 521.385 494.244 514.118 488.836 508.597C483.54 502.964 476.611 500.147 468.049 500.147C459.486 500.147 452.557 502.964 447.262 508.597C441.966 514.118 439.319 521.385 439.319 530.398C439.319 539.299 441.966 546.566 447.262 552.199C452.557 557.72 459.486 560.48 468.049 560.48ZM574.734 495.077C582.282 495.077 589.042 496.767 595.014 500.147C600.985 503.527 605.661 508.259 609.041 514.343C612.421 520.427 614.111 527.356 614.111 535.13C614.111 542.904 612.252 549.889 608.534 556.086C604.928 562.283 599.802 567.127 593.155 570.62C586.62 574 579.184 575.69 570.847 575.69C563.749 575.69 557.383 574.451 551.75 571.972C546.116 569.381 541.384 565.663 537.554 560.818C534.061 556.424 531.47 551.185 529.78 545.101C528.09 539.017 527.245 531.694 527.245 523.131C527.245 505.33 530.963 491.415 538.399 481.388C545.947 471.248 558.51 465.389 576.086 463.812C580.367 463.361 583.634 462.742 585.888 461.953C588.141 461.164 589.775 460.094 590.789 458.742C591.915 457.277 592.704 455.193 593.155 452.489L607.858 453.672C607.407 460.094 605.773 465.108 602.957 468.713C600.253 472.206 596.704 474.684 592.31 476.149C588.028 477.614 582.733 478.628 576.424 479.191C565.157 480.205 557.158 483.191 552.426 488.148C547.806 493.105 545.102 500.429 544.314 510.118C551.524 500.091 561.664 495.077 574.734 495.077ZM571.185 560.818C578.846 560.818 585.043 558.452 589.775 553.72C594.619 548.988 597.042 542.848 597.042 535.299C597.042 527.75 594.619 521.666 589.775 517.047C585.043 512.315 578.846 509.949 571.185 509.949C563.298 509.949 556.932 512.315 552.088 517.047C547.356 521.666 544.99 527.75 544.99 535.299C544.99 542.848 547.412 548.988 552.257 553.72C557.101 558.452 563.411 560.818 571.185 560.818Z" fill="#37324A"/>
</g>
<defs>
<clipPath id="clip0">
<rect width="1990" height="853" fill="white"/>
</clipPath>
</defs>
</svg>
