<svg width="1500" height="1500" viewBox="0 0 1500 1500" fill="none" xmlns="http://www.w3.org/2000/svg">
<g clip-path="url(#clip0)">
<rect width="1500" height="1500" fill="white"/>
<path d="M1487.58 1800.54C1039.33 1952.16 633.684 1823.69 486.89 1740.5C251.705 2041.66 52.1359 1915 13.7198 1786.47C-24.6963 1657.94 23.0896 1560.36 88.678 1409.31C195.868 1120.35 330.728 1039.35 384.76 1034.97C592.045 969.813 930.081 974.925 1128.72 1034.97C1301.12 1081.88 1459.47 1533.16 1487.58 1624.16C1510.07 1696.97 1496.95 1772.08 1487.58 1800.54Z" fill="#EDF3FF"/>
<path d="M963 1002.38C841.752 970.905 631.813 989.264 542 1002.38C554.724 1066.07 624.975 1570.12 658.343 1811.17C756.577 1840.2 823.937 1851.44 873.521 1858C892.232 1737.35 940.547 1235.61 963 1002.38Z" fill="#75B5FF"/>
<path d="M742.03 1081C609.498 1081 586 996.659 586 996.659C594.523 994.715 605.632 992.632 618.898 990.67L636.757 768L852.003 858.901L867.982 991.332C878.265 992.877 888.616 994.646 899 996.659C899 996.659 874.562 1081 742.03 1081Z" fill="#FDA472"/>
<path d="M629 859.104L632.767 817C734.467 884.367 823.297 870.644 855 855.362L852.5 862.5C738.747 944.837 656.936 898.09 629 859.104Z" fill="#252733"/>
<path d="M934.171 713.121C934.171 713.121 914.496 889 761.782 889C658.624 889 605.054 794.233 582.016 713.121C559.802 715.304 511.358 691.604 506.941 660.732C500.195 613.581 531.285 596.013 550.024 596.013L559 608.5C536.514 484.262 574.086 459.905 588.452 449.302C688.7 431.216 898.191 401.403 934.171 426.85C970.151 452.296 953.532 575.91 940.725 634.537L956.652 595.245C971.33 595.556 1000.12 606.845 997.876 649.505C995.627 692.165 954.469 709.691 934.171 713.121Z" fill="#FDA472"/>
<path d="M584.309 483.704C561.83 512.19 566 558.5 561.499 615C526.845 566.899 479.596 470.96 506.571 360.016C533.545 249.071 599.608 249.446 629.267 263.501C645.189 239.138 721.055 154.805 853.117 185.727C1044.94 234.453 998.57 508.126 940.5 636.5C943.497 524.056 923.676 468.399 913.061 455.593C759.456 532.805 629.891 506.505 584.309 483.704Z" fill="#252733"/>
<path d="M748.5 602.227C746.167 625.06 739.1 675.827 729.5 696.227C717.5 721.727 745 733.227 769 726.227M719 779.227C734.833 785.227 773 790.827 799 765.227" stroke="#252733" stroke-width="10" stroke-linecap="round" stroke-linejoin="round"/>
<ellipse cx="658.5" cy="631.227" rx="22" ry="29.5" fill="#252733"/>
<ellipse cx="849.5" cy="631.227" rx="22" ry="29.5" fill="#252733"/>
<path d="M805 571.5C825.5 557 861 556 878.5 577.226M621 577.226C638.5 557 670.1 558.826 686.5 577.226" stroke="#252733" stroke-width="10" stroke-linecap="round" stroke-linejoin="round"/>
<path d="M947 656.458C947 643 961 634.5 979.5 638.5M528.5 634.458C539.5 632.958 562.3 635.658 565.5 658.458" stroke="#252733" stroke-width="10" stroke-linecap="round" stroke-linejoin="round"/>
</g>
<defs>
<clipPath id="clip0">
<rect width="1500" height="1500" fill="white"/>
</clipPath>
</defs>
</svg>
